<svg width="189" height="47" viewBox="0 0 189 47" fill="none" xmlns="http://www.w3.org/2000/svg">
<path d="M46.448 0.495996C47.248 0.495996 47.92 0.527997 48.464 0.591998V1.072C46.48 1.168 44.768 1.648 43.328 2.512C41.696 3.504 40.528 4.432 39.824 5.296C39.152 6.128 38.608 6.816 38.192 7.36C37.808 7.872 37.424 8.496 37.04 9.232C36.432 10.352 35.872 11.456 35.36 12.544L22.496 40.672C21.024 43.84 20.24 45.936 20.144 46.96H19.712L5.168 15.616C4.688 14.72 4.08 14.048 3.344 13.6C2.608 13.12 1.856 12.88 1.088 12.88H0.704V12.4H15.968V12.88H15.584C14.88 12.88 14.352 13.104 14 13.552C13.68 13.968 13.52 14.368 13.52 14.752C13.52 15.136 13.584 15.52 13.712 15.904L21.872 35.728L31.808 12.544C33.312 8.992 35.072 6.32 37.088 4.528C40.064 1.84 43.184 0.495996 46.448 0.495996ZM53.9844 40.0156H42.5625L40.6875 44.0625C40.5104 44.4479 40.4219 44.7188 40.4219 44.875C40.4219 45.1875 40.7292 45.3958 41.3438 45.5V46H36.5938V45.5C37.0208 45.4271 37.3438 45.2708 37.5625 45.0312C37.7917 44.7917 38.0885 44.2708 38.4531 43.4688L46.2656 26.6094C46.4531 26.2031 46.5469 25.9271 46.5469 25.7812C46.5469 25.5104 46.2917 25.3073 45.7812 25.1719V24.6719H50.9688V25.1719C50.4583 25.3385 50.2031 25.5573 50.2031 25.8281C50.2031 25.9427 50.2969 26.2031 50.4844 26.6094L57.9688 42.8594C58.5208 44.0573 58.8854 44.7604 59.0625 44.9688C59.2396 45.1771 59.625 45.3542 60.2188 45.5V46H55.1562V45.5C55.7604 45.4167 56.0625 45.1875 56.0625 44.8125C56.0625 44.6458 55.9479 44.3229 55.7188 43.8438L53.9844 40.0156ZM53.0625 37.9844L48.2656 27.4531L43.4844 37.9844H53.0625ZM65.8906 43.9688H79.5156C79.9531 43.9688 80.2604 43.901 80.4375 43.7656C80.625 43.6302 80.7656 43.3646 80.8594 42.9688H81.3594V47H80.8594C80.7656 46.6042 80.625 46.3385 80.4375 46.2031C80.2604 46.0677 79.9531 46 79.5156 46H62.4375V45.5C62.8438 45.3958 63.1094 45.2552 63.2344 45.0781C63.3698 44.901 63.4375 44.5938 63.4375 44.1562V26.5156C63.4375 26.0781 63.3698 25.7708 63.2344 25.5938C63.099 25.4167 62.8333 25.276 62.4375 25.1719V24.6719H66.8906V25.1719C66.4948 25.276 66.2292 25.4167 66.0938 25.5938C65.9583 25.7708 65.8906 26.0781 65.8906 26.5156V43.9688ZM95.375 24.2969C99.1354 24.2969 102.167 25.2812 104.469 27.25C105.76 28.3438 106.729 29.6823 107.375 31.2656C107.906 32.5677 108.172 33.9688 108.172 35.4688C108.172 37.5 107.594 39.401 106.438 41.1719C105.167 43.1302 103.401 44.5417 101.141 45.4062C99.4531 46.0521 97.5417 46.375 95.4062 46.375C91.6667 46.375 88.651 45.3906 86.3594 43.4219C85.0781 42.3177 84.1094 40.9792 83.4531 39.4062C82.9219 38.1146 82.6562 36.7552 82.6562 35.3281C82.6562 33.2135 83.2292 31.2656 84.375 29.4844C85.625 27.5573 87.3958 26.151 89.6875 25.2656C91.2917 24.651 93.1875 24.3281 95.375 24.2969ZM95.375 26.4375C92.1771 26.4375 89.6458 27.3333 87.7812 29.125C86.0729 30.7708 85.2188 32.8385 85.2188 35.3281C85.2188 37.8281 86.0729 39.901 87.7812 41.5469C89.6354 43.3385 92.1771 44.2344 95.4062 44.2344C98.6458 44.2344 101.198 43.3385 103.062 41.5469C104.76 39.901 105.609 37.8698 105.609 35.4531C105.609 32.8385 104.76 30.7292 103.062 29.125C102.042 28.1667 100.948 27.4948 99.7812 27.1094C98.4896 26.6719 97.0208 26.4479 95.375 26.4375ZM115.797 36.3906V44.1562C115.797 44.5833 115.865 44.8906 116 45.0781C116.135 45.2552 116.401 45.3958 116.797 45.5V46H112.344V45.5C112.74 45.3958 113.005 45.2552 113.141 45.0781C113.276 44.901 113.344 44.5938 113.344 44.1562V26.5156C113.344 26.0781 113.276 25.7708 113.141 25.5938C113.005 25.4062 112.74 25.2656 112.344 25.1719V24.6719H124.047C125.651 24.6719 126.917 24.7604 127.844 24.9375C128.781 25.1042 129.594 25.401 130.281 25.8281C130.99 26.2656 131.562 26.8646 132 27.625C132.5 28.4896 132.75 29.4635 132.75 30.5469C132.75 32.1719 132.208 33.5 131.125 34.5312C130.052 35.5521 128.573 36.1354 126.688 36.2812L132.109 44.7188C132.432 45.2396 132.901 45.5 133.516 45.5V46H128.578V45.5C129.089 45.4167 129.344 45.2708 129.344 45.0625C129.344 44.9583 129.161 44.6198 128.797 44.0469L123.953 36.3906H115.797ZM115.797 34.375H124.438C125.615 34.375 126.5 34.3281 127.094 34.2344C127.698 34.1302 128.229 33.9479 128.688 33.6875C129.76 33.0625 130.297 32.0156 130.297 30.5469C130.297 29.0677 129.745 28.0156 128.641 27.3906C128.151 27.1198 127.604 26.9375 127 26.8438C126.406 26.75 125.479 26.7031 124.219 26.7031H115.797V34.375ZM137.938 44.1562V26.5156C137.938 26.0781 137.87 25.7708 137.734 25.5938C137.599 25.4062 137.333 25.2656 136.938 25.1719V24.6719H141.391V25.1719C140.995 25.276 140.729 25.4167 140.594 25.5938C140.458 25.7708 140.391 26.0781 140.391 26.5156V44.1562C140.391 44.5938 140.453 44.901 140.578 45.0781C140.714 45.2552 140.984 45.3958 141.391 45.5V46H136.938V45.5C137.344 45.3958 137.609 45.2552 137.734 45.0781C137.87 44.901 137.938 44.5938 137.938 44.1562ZM166.109 25.9844L163.875 30.0156L163.438 29.7812C163.615 29.3125 163.703 29.0208 163.703 28.9062C163.703 28.5938 163.318 28.2552 162.547 27.8906C160.453 26.9115 158.234 26.4219 155.891 26.4219C153.964 26.4219 152.286 26.7812 150.859 27.5C150.172 27.8542 149.625 28.3125 149.219 28.875C148.823 29.4375 148.625 30.0312 148.625 30.6562C148.625 31.1771 148.781 31.6719 149.094 32.1406C149.406 32.599 149.818 32.9427 150.328 33.1719C150.891 33.4323 151.552 33.6146 152.312 33.7188C153.083 33.8125 154.333 33.8854 156.062 33.9375C158.458 34.0104 160.172 34.125 161.203 34.2812C162.234 34.4271 163.083 34.6875 163.75 35.0625C165.521 36.0521 166.406 37.5573 166.406 39.5781C166.406 41.5052 165.604 43.0833 164 44.3125C162.219 45.6875 159.766 46.375 156.641 46.375C154.839 46.375 153.266 46.1927 151.922 45.8281C150.578 45.4635 148.974 44.7917 147.109 43.8125C146.589 43.5729 146.281 43.4531 146.188 43.4531C146.031 43.4531 145.786 43.6406 145.453 44.0156L145.031 43.75L147.375 39.8281L147.812 40.0781C147.615 40.4948 147.516 40.776 147.516 40.9219C147.516 41.2552 148.182 41.7708 149.516 42.4688C150.714 43.0938 151.865 43.5469 152.969 43.8281C154.083 44.099 155.292 44.2344 156.594 44.2344C159.229 44.2344 161.229 43.6562 162.594 42.5C163.5 41.7292 163.953 40.8125 163.953 39.75C163.953 38.3542 163.177 37.3906 161.625 36.8594C161.125 36.6823 160.604 36.5729 160.062 36.5312C159.531 36.4792 158.01 36.4062 155.5 36.3125C153.708 36.2396 152.302 36.1042 151.281 35.9062C150.271 35.7083 149.37 35.3854 148.578 34.9375C147.839 34.5208 147.25 33.9375 146.812 33.1875C146.385 32.4375 146.172 31.6198 146.172 30.7344C146.172 29.224 146.734 27.9271 147.859 26.8438C148.693 26.0521 149.844 25.4323 151.312 24.9844C152.781 24.526 154.391 24.2969 156.141 24.2969C157.568 24.2969 158.891 24.4375 160.109 24.7188C161.339 25 162.724 25.4844 164.266 26.1719C164.609 26.3177 164.823 26.3906 164.906 26.3906C165.094 26.3906 165.349 26.1823 165.672 25.7656L166.109 25.9844ZM173.484 36.0469V43.9688H187.156C187.594 43.9688 187.901 43.901 188.078 43.7656C188.266 43.6302 188.406 43.3646 188.5 42.9688H189V47H188.516C188.411 46.6042 188.266 46.3385 188.078 46.2031C187.901 46.0677 187.594 46 187.156 46H170.031V45.5C170.438 45.3958 170.703 45.2552 170.828 45.0781C170.964 44.901 171.031 44.5938 171.031 44.1562V26.5156C171.031 26.0781 170.964 25.7708 170.828 25.5938C170.693 25.4167 170.427 25.276 170.031 25.1719V24.6719H186.953C187.391 24.6719 187.698 24.6042 187.875 24.4688C188.052 24.3333 188.193 24.0625 188.297 23.6562H188.797V27.6875H188.297C188.203 27.3021 188.062 27.0417 187.875 26.9062C187.698 26.7708 187.391 26.7031 186.953 26.7031H173.484V34.0156H182.312C182.75 34.0156 183.057 33.9479 183.234 33.8125C183.422 33.6771 183.562 33.4115 183.656 33.0156H184.156V37.0469H183.656C183.562 36.651 183.422 36.3854 183.234 36.25C183.057 36.1146 182.75 36.0469 182.312 36.0469H173.484Z" fill="#000099"/>
</svg>
