<svg width="18" height="25" viewBox="0 0 18 25" fill="none" xmlns="http://www.w3.org/2000/svg">
<path d="M9 24.5247C9 24.5247 18 15.9957 18 9.52466C18 7.13771 17.0518 4.84852 15.364 3.1607C13.6761 1.47287 11.3869 0.524658 9 0.524658C6.61305 0.524658 4.32387 1.47287 2.63604 3.1607C0.948211 4.84852 3.55683e-08 7.13771 0 9.52466C0 15.9957 9 24.5247 9 24.5247ZM9 14.0247C7.80653 14.0247 6.66193 13.5506 5.81802 12.7066C4.97411 11.8627 4.5 10.7181 4.5 9.52466C4.5 8.33118 4.97411 7.18659 5.81802 6.34268C6.66193 5.49876 7.80653 5.02466 9 5.02466C10.1935 5.02466 11.3381 5.49876 12.182 6.34268C13.0259 7.18659 13.5 8.33118 13.5 9.52466C13.5 10.7181 13.0259 11.8627 12.182 12.7066C11.3381 13.5506 10.1935 14.0247 9 14.0247Z" fill="#000099"/>
</svg>
