<svg width="24" height="25" viewBox="0 0 24 25" fill="none" xmlns="http://www.w3.org/2000/svg">
<path d="M0 2.24366C0 1.29416 0.789 0.524658 1.7625 0.524658H22.2375C23.211 0.524658 24 1.29416 24 2.24366V22.8057C24 23.7552 23.211 24.5247 22.2375 24.5247H1.7625C0.789 24.5247 0 23.7552 0 22.8057V2.24366ZM7.4145 20.6157V9.77816H3.813V20.6157H7.4145ZM5.6145 8.29766C6.87 8.29766 7.6515 7.46666 7.6515 6.42566C7.629 5.36216 6.8715 4.55366 5.6385 4.55366C4.4055 4.55366 3.6 5.36366 3.6 6.42566C3.6 7.46666 4.3815 8.29766 5.5905 8.29766H5.6145ZM12.9765 20.6157V14.5632C12.9765 14.2392 13.0005 13.9152 13.0965 13.6842C13.356 13.0377 13.9485 12.3672 14.9445 12.3672C16.248 12.3672 16.7685 13.3602 16.7685 14.8182V20.6157H20.37V14.3997C20.37 11.0697 18.594 9.52166 16.224 9.52166C14.313 9.52166 13.4565 10.5717 12.9765 11.3112V11.3487H12.9525C12.9605 11.3361 12.9685 11.3236 12.9765 11.3112V9.77816H9.3765C9.4215 10.7952 9.3765 20.6157 9.3765 20.6157H12.9765Z" fill="#000099"/>
</svg>
