<svg width="24" height="19" viewBox="0 0 24 19" fill="none" xmlns="http://www.w3.org/2000/svg">
<path d="M0.075 2.85716C0.226227 2.19452 0.597983 1.60288 1.12938 1.17912C1.66078 0.755364 2.32033 0.524612 3 0.524658H21C21.6797 0.524612 22.3392 0.755364 22.8706 1.17912C23.402 1.60288 23.7738 2.19452 23.925 2.85716L12 10.1457L0.075 2.85716ZM0 4.57016V15.2262L8.7045 9.88916L0 4.57016ZM10.1415 10.7697L0.2865 16.8102C0.52999 17.3236 0.91429 17.7573 1.39467 18.0608C1.87505 18.3644 2.43176 18.5252 3 18.5247H21C21.5681 18.5248 22.1246 18.3636 22.6048 18.0598C23.0849 17.756 23.4688 17.3221 23.712 16.8087L13.857 10.7682L12 11.9037L10.1415 10.7682V10.7697ZM15.2955 9.89066L24 15.2262V4.57016L15.2955 9.88916V9.89066Z" fill="#000099"/>
</svg>
