<svg width="24" height="25" viewBox="0 0 24 25" fill="none" xmlns="http://www.w3.org/2000/svg">
<path fill-rule="evenodd" clip-rule="evenodd" d="M2.82812 1.28989C3.09057 1.02783 3.40572 0.824542 3.75268 0.693493C4.09965 0.562445 4.4705 0.50663 4.84066 0.529748C5.21083 0.552865 5.57185 0.654387 5.89982 0.827586C6.22778 1.00078 6.51519 1.24171 6.743 1.53438L9.43541 4.99327C9.9289 5.62775 10.1029 6.45423 9.9079 7.2342L9.08742 10.5191C9.045 10.6892 9.04729 10.8675 9.09408 11.0364C9.14086 11.2054 9.23054 11.3595 9.35441 11.4836L13.0398 15.169C13.1641 15.2931 13.3183 15.3829 13.4876 15.4297C13.6569 15.4765 13.8354 15.4786 14.0058 15.4359L17.2892 14.6155C17.6741 14.5192 18.0758 14.5118 18.4641 14.5936C18.8523 14.6755 19.2168 14.8445 19.5301 15.088L22.989 17.7789C24.2325 18.7463 24.3464 20.5838 23.2335 21.6952L21.6825 23.2462C20.5726 24.3562 18.9136 24.8436 17.3672 24.2992C13.4091 22.9065 9.81531 20.6405 6.85249 17.6694C3.88152 14.707 1.61557 11.1138 0.222699 7.15621C-0.320284 5.61125 0.167201 3.95081 1.27717 2.84084L2.82812 1.28989Z" fill="#000099"/>
</svg>
