<svg width="24" height="21" viewBox="0 0 24 21" fill="none" xmlns="http://www.w3.org/2000/svg">
<path d="M7.539 20.0257C16.596 20.0257 21.5505 12.5212 21.5505 6.0247C21.5505 5.8147 21.5505 5.6017 21.5415 5.3917C22.5061 4.69343 23.3386 3.82893 24 2.8387C23.099 3.23597 22.1441 3.49781 21.1665 3.6157C22.1963 3.00015 22.9676 2.03165 23.337 0.890198C22.3695 1.46338 21.3105 1.86576 20.2065 2.0797C19.4643 1.28923 18.4821 0.765574 17.4121 0.589834C16.3421 0.414094 15.2441 0.59608 14.288 1.1076C13.3319 1.61913 12.5712 2.43164 12.1237 3.41929C11.6761 4.40694 11.5668 5.5146 11.8125 6.5707C9.85461 6.47253 7.93922 5.9639 6.19056 5.07781C4.4419 4.19172 2.89903 2.94796 1.662 1.4272C1.03401 2.51182 0.842361 3.7948 1.12597 5.0156C1.40958 6.23639 2.14718 7.30349 3.189 8.0002C2.40831 7.97367 1.64478 7.76404 0.96 7.3882V7.4557C0.961346 8.59192 1.35496 9.69283 2.07431 10.5723C2.79366 11.4518 3.79462 12.056 4.908 12.2827C4.48539 12.3991 4.04884 12.4572 3.6105 12.4552C3.30148 12.4561 2.99307 12.4275 2.6895 12.3697C3.00418 13.3478 3.61691 14.2029 4.44187 14.8154C5.26683 15.4279 6.2627 15.767 7.29 15.7852C5.54483 17.1559 3.3891 17.8993 1.17 17.8957C0.778981 17.8973 0.388235 17.8748 0 17.8282C2.25227 19.2641 4.86795 20.0265 7.539 20.0257Z" fill="#000099"/>
</svg>
