<svg width="21" height="24" viewBox="0 0 21 24" fill="none" xmlns="http://www.w3.org/2000/svg">
<path d="M0.857143 24C0.629814 24 0.411797 23.9097 0.251051 23.749C0.090306 23.5882 0 23.3702 0 23.1429C0 22.9155 0.090306 22.6975 0.251051 22.5368C0.411797 22.376 0.629814 22.2857 0.857143 22.2857H2.57143V20.5714C2.57108 19.1159 2.98249 17.6901 3.75814 16.4585C4.5338 15.2269 5.64204 14.2399 6.95486 13.6114C7.452 13.3731 7.71429 12.9651 7.71429 12.6V11.4C7.71429 11.0349 7.45029 10.6269 6.95486 10.3886C5.64204 9.76013 4.5338 8.77311 3.75814 7.54152C2.98249 6.30994 2.57108 4.88405 2.57143 3.42857V1.71429H0.857143C0.629814 1.71429 0.411797 1.62398 0.251051 1.46323C0.090306 1.30249 0 1.08447 0 0.857143C0 0.629814 0.090306 0.411797 0.251051 0.251051C0.411797 0.0903058 0.629814 0 0.857143 0H19.7143C19.9416 0 20.1596 0.0903058 20.3204 0.251051C20.4811 0.411797 20.5714 0.629814 20.5714 0.857143C20.5714 1.08447 20.4811 1.30249 20.3204 1.46323C20.1596 1.62398 19.9416 1.71429 19.7143 1.71429H18V3.42857C18.0004 4.88405 17.5889 6.30994 16.8133 7.54152C16.0376 8.77311 14.9294 9.76013 13.6166 10.3886C13.1194 10.6269 12.8571 11.0349 12.8571 11.4V12.6C12.8571 12.9651 13.1211 13.3731 13.6166 13.6114C14.9294 14.2399 16.0376 15.2269 16.8133 16.4585C17.5889 17.6901 18.0004 19.1159 18 20.5714V22.2857H19.7143C19.9416 22.2857 20.1596 22.376 20.3204 22.5368C20.4811 22.6975 20.5714 22.9155 20.5714 23.1429C20.5714 23.3702 20.4811 23.5882 20.3204 23.749C20.1596 23.9097 19.9416 24 19.7143 24H0.857143ZM4.28571 1.71429V3.42857C4.28571 4.34914 4.49143 5.22 4.86343 6H15.708C16.0783 5.22 16.2857 4.34914 16.2857 3.42857V1.71429H4.28571ZM9.42857 12.6C9.42857 13.8017 8.60914 14.7189 7.69543 15.1577C6.67422 15.6465 5.81213 16.4142 5.20877 17.3722C4.60541 18.3301 4.2854 19.4393 4.28571 20.5714C4.28571 20.5714 5.77029 18.3446 9.42857 18.0343V12.6ZM11.1429 12.6V18.0343C14.8011 18.3446 16.2857 20.5714 16.2857 20.5714C16.286 19.4393 15.966 18.3301 15.3627 17.3722C14.7593 16.4142 13.8972 15.6465 12.876 15.1577C11.9623 14.7189 11.1429 13.8034 11.1429 12.6017V12.6Z" fill="#000099"/>
</svg>
