<svg width="22" height="22" viewBox="0 0 22 22" fill="none" xmlns="http://www.w3.org/2000/svg">
<path d="M0.94068 0.938239C1.08002 0.798549 1.24554 0.68772 1.42778 0.612101C1.61002 0.536482 1.80538 0.497559 2.00268 0.497559C2.19998 0.497559 2.39535 0.536482 2.57758 0.612101C2.75982 0.68772 2.92534 0.798549 3.06468 0.938239L11.0027 8.87924L18.9407 0.938239C19.0801 0.798775 19.2457 0.688146 19.4279 0.612669C19.6101 0.537192 19.8054 0.498344 20.0027 0.498344C20.1999 0.498344 20.3952 0.537192 20.5774 0.612669C20.7596 0.688146 20.9252 0.798775 21.0647 0.938239C21.2041 1.0777 21.3148 1.24327 21.3902 1.42549C21.4657 1.60771 21.5046 1.80301 21.5046 2.00024C21.5046 2.19747 21.4657 2.39277 21.3902 2.57499C21.3148 2.75721 21.2041 2.92278 21.0647 3.06224L13.1237 11.0002L21.0647 18.9382C21.2041 19.0777 21.3148 19.2433 21.3902 19.4255C21.4657 19.6077 21.5046 19.803 21.5046 20.0002C21.5046 20.1975 21.4657 20.3928 21.3902 20.575C21.3148 20.7572 21.2041 20.9228 21.0647 21.0622C20.9252 21.2017 20.7596 21.3123 20.5774 21.3878C20.3952 21.4633 20.1999 21.5021 20.0027 21.5021C19.8054 21.5021 19.6101 21.4633 19.4279 21.3878C19.2457 21.3123 19.0801 21.2017 18.9407 21.0622L11.0027 13.1212L3.06468 21.0622C2.92522 21.2017 2.75965 21.3123 2.57743 21.3878C2.39521 21.4633 2.19991 21.5021 2.00268 21.5021C1.80545 21.5021 1.61015 21.4633 1.42793 21.3878C1.24571 21.3123 1.08014 21.2017 0.94068 21.0622C0.801217 20.9228 0.690588 20.7572 0.61511 20.575C0.539633 20.3928 0.500785 20.1975 0.500785 20.0002C0.500785 19.803 0.539633 19.6077 0.61511 19.4255C0.690588 19.2433 0.801217 19.0777 0.94068 18.9382L8.88168 11.0002L0.94068 3.06224C0.800991 2.9229 0.690162 2.75738 0.614542 2.57514C0.538923 2.3929 0.5 2.19754 0.5 2.00024C0.5 1.80294 0.538923 1.60757 0.614542 1.42534C0.690162 1.2431 0.800991 1.07758 0.94068 0.938239Z" fill="#000026"/>
</svg>
