<svg width="388" height="294" viewBox="0 0 388 294" fill="none" xmlns="http://www.w3.org/2000/svg">
<g clip-path="url(#clip0_4033_10395)">
<path opacity="0.18" d="M50.2349 40.5983C30.3125 63.8308 21.7262 94.5993 15.9352 124.675C9.96862 155.789 6.40424 187.317 5.27374 218.979C4.60489 237.562 5.69105 258.412 19.1765 271.182C24.2186 275.964 30.5583 279.108 36.8866 281.971C48.1655 287.091 59.896 291.609 72.2039 292.995C92.6008 295.285 112.866 288.877 132.388 282.515C166.78 271.308 202.537 259.867 238.42 264.402C255.061 266.504 271.091 272.001 287.629 274.813C304.167 277.625 322.077 277.493 336.597 269.086C346.699 263.228 354.319 253.831 360.333 243.809C373.83 221.321 380.204 195.134 382.245 168.958C383.251 156.033 383.234 142.937 380.735 130.218C377.877 115.684 371.863 101.992 365.792 88.4892C358.361 71.9223 350.66 55.3097 340.033 40.5868C329.406 25.8639 315.537 12.985 298.668 6.33652C266.557 -6.30191 231.446 4.87626 198.998 9.9614C182.42 12.5441 165.27 14.2105 148.727 10.4711C140.763 8.67294 134.372 4.97361 126.203 4.68155C117.588 4.37805 108.356 6.39951 100.135 8.77601C80.9446 14.325 63.2745 25.3829 50.2349 40.5983Z" fill="#68E1FD"/>
<path d="M188.315 122.132H161.047V144.443H188.315V122.132Z" fill="#68E1FD"/>
<path d="M188.315 122.132H161.047V144.443H188.315V122.132Z" fill="url(#paint0_linear_4033_10395)"/>
<path d="M211.261 76.3604H141.65C137.11 76.3604 133.43 80.0472 133.43 84.5951V122.694C133.43 127.242 137.11 130.928 141.65 130.928H211.261C215.801 130.928 219.482 127.242 219.482 122.694V84.5951C219.482 80.0472 215.801 76.3604 211.261 76.3604Z" fill="#FCFDF7"/>
<path d="M255.733 144.191H110.891V148.812H255.733V144.191Z" fill="#FCFDF7"/>
<path d="M255.733 146.882H110.891V148.812H255.733V146.882Z" fill="#D9DBE2"/>
<path opacity="0.18" d="M192.646 255.95C278.042 255.95 347.27 247.961 347.27 238.106C347.27 228.251 278.042 220.262 192.646 220.262C107.251 220.262 38.0234 228.251 38.0234 238.106C38.0234 247.961 107.251 255.95 192.646 255.95Z" fill="#68E1FD"/>
<path d="M307.862 182.851C307.862 182.851 323.765 234.24 322.039 235.5C320.312 236.76 319.221 233.336 319.221 233.336L303.18 185.576L307.862 182.851Z" fill="#68E1FD"/>
<path d="M273.673 188.784L273.524 189.156L255.403 235.73C255.129 236.449 254.715 237.107 254.185 237.665C254.082 237.789 253.955 237.891 253.811 237.964C253.668 238.036 253.511 238.079 253.35 238.089C253.189 238.098 253.028 238.075 252.877 238.02C252.725 237.965 252.587 237.879 252.47 237.768C250.835 236.428 267.859 188.629 267.859 188.629L273.673 188.784Z" fill="#68E1FD"/>
<path d="M287.239 185.365C287.239 185.365 286.667 239.16 284.649 239.83C282.631 240.5 282.631 236.903 282.631 236.903L281.945 186.51L287.239 185.365Z" fill="#68E1FD"/>
<path d="M305.02 183.475C305.02 183.475 322.33 233.295 320.598 234.532C318.866 235.769 319.221 233.33 319.221 233.33L303.18 185.571L305.02 183.475Z" fill="url(#paint1_linear_4033_10395)"/>
<path d="M273.519 189.156L255.397 235.73C255.123 236.449 254.709 237.107 254.18 237.665C254.243 232.328 269.666 189.07 269.666 189.07L273.519 189.156Z" fill="url(#paint2_linear_4033_10395)"/>
<path d="M287.242 185.365C287.242 185.365 286.67 239.16 284.652 239.83C282.634 240.5 283.881 235.775 283.881 235.775L284.595 185.955L287.242 185.365Z" fill="url(#paint3_linear_4033_10395)"/>
<path d="M322.41 170.556C318.614 179.323 310.073 185.37 300.921 188.084C293.786 190.198 286.269 190.524 278.792 190.094C276.699 189.984 274.603 189.825 272.504 189.619C268.845 189.247 265.135 188.772 261.711 187.432C258.286 186.092 255.096 183.778 253.359 180.508C252.299 178.356 251.714 176.001 251.644 173.602C251.283 167.452 253.227 160.912 257.932 156.995C261.625 153.903 266.444 152.7 270.274 149.831C274.561 146.607 278.963 143.727 283.502 140.829C288.041 137.932 292.649 135.005 297.725 133.161C302.802 131.318 308.461 130.625 313.595 132.257C315.372 132.829 318.111 134.209 320.792 140.783C324.685 150.181 326.446 161.227 322.41 170.556Z" fill="#2F3653"/>
<path d="M294.301 108.286C292.478 110.788 286.921 113.205 286.921 113.205C286.281 110.731 287.647 109.815 287.647 109.815C289.07 109.941 290.94 106.465 290.328 105.371C289.574 104.008 288.527 104.495 287.83 105.079C287.111 104.518 286.515 103.813 286.081 103.01C285.647 102.206 285.384 101.322 285.309 100.412C285.217 99.3407 287.064 96.3171 283.525 95.0058C279.987 93.6944 275.002 95.0058 275.002 95.0058C275.002 95.0058 273.716 91.7016 277.86 90.121C287.161 86.5592 298.217 92.635 297.6 103.074C297.434 105.903 297.245 109.116 299.2 111.16C300.269 112.271 301.778 112.81 303.202 113.371C305.06 114.092 306.946 114.968 308.25 116.486C309.553 118.003 310.108 120.328 309.073 122.041C308.581 122.86 307.729 123.644 307.93 124.578C308.072 124.996 308.318 125.372 308.644 125.671C310.781 127.967 312.153 130.87 312.571 133.98C312.768 135.529 312.629 137.101 312.163 138.591C311.697 140.08 310.916 141.451 309.873 142.61C307.015 145.617 302.442 146.401 298.343 145.783C295.027 145.279 291.746 143.904 289.493 141.413C286.064 137.617 285.635 132.102 284.68 127.097C284.623 126.48 284.375 125.895 283.971 125.425C282.971 124.486 281.364 125.248 279.998 125.213C277.637 125.162 276.054 122.568 275.997 120.208C275.939 117.849 276.894 115.627 277.374 113.285C277.854 110.943 277.706 108.24 275.917 106.699C275.248 106.127 274.413 105.766 273.693 105.251C270.503 102.96 270.692 97.6743 273.413 94.834C276.134 91.9936 280.501 91.295 284.371 91.9707C287.481 92.5434 294.501 94.2613 295.942 97.1246C297.382 99.9878 296.136 105.777 294.301 108.286Z" fill="#EE6352"/>
<path d="M270.625 123.203L255.63 138.665L235.725 128.151C233.266 126.634 230.419 125.872 227.533 125.958C227.236 125.958 226.836 126.129 226.904 126.416C226.973 126.702 227.304 126.725 227.356 126.988C227.407 127.252 227.087 127.412 226.824 127.469L222.068 128.529C221.37 128.689 220.524 129.016 220.484 129.731C220.505 129.97 220.581 130.2 220.705 130.404C220.829 130.609 220.998 130.782 221.199 130.911C224.337 133.528 228.739 134.101 232.809 133.723C233.204 133.665 233.604 133.665 233.998 133.723C234.386 133.82 234.756 133.976 235.096 134.187C236.633 135.04 238.123 135.975 239.561 136.987C243.465 139.736 246.958 143.04 250.92 145.708C251.717 146.339 252.668 146.745 253.675 146.882C254.57 146.869 255.451 146.655 256.253 146.258C261.97 143.967 267.829 141.522 272.18 137.159C272.566 136.81 272.88 136.39 273.106 135.922C273.263 135.447 273.339 134.95 273.329 134.45C273.386 132.354 273.359 130.254 273.249 128.151C273.266 127.193 273.056 126.246 272.637 125.385C272.416 124.96 272.06 124.62 271.626 124.418C271.192 124.216 270.703 124.163 270.236 124.268" fill="#FDBAAC"/>
<path d="M261.139 139.512C260.652 139.886 260.124 140.205 259.567 140.463C258.355 140.973 256.989 140.875 255.674 140.841C253.682 140.79 251.689 140.909 249.717 141.196C249.224 141.23 248.746 141.381 248.322 141.637C248.115 141.77 247.956 141.967 247.87 142.198C247.783 142.429 247.773 142.682 247.842 142.92C247.975 143.177 248.172 143.396 248.414 143.555C250.009 144.844 251.724 146.184 253.759 146.418C256.194 146.739 258.527 145.445 260.619 144.197L264.998 141.671C265.653 141.351 266.224 140.882 266.667 140.303C267.279 139.358 267.422 136.718 265.935 136.443C264.718 136.202 262.082 138.808 261.139 139.512Z" fill="#DEA095"/>
<path d="M272.832 119.338C273.12 119.245 273.417 119.183 273.718 119.155C275.228 119.011 276.943 119.384 278.458 119.452C280.59 119.544 282.728 119.596 284.866 119.527C288.942 119.407 295.63 118.954 299.277 123.421C303.799 128.935 299.901 138.63 296.745 145.903C295.602 148.618 294.996 157.408 295.602 163.833C295.602 163.833 282.911 168.282 271.746 165.963L267.916 151.567C267.705 150.822 267.041 150.032 266.716 149.322C265.831 147.396 265.186 145.369 264.795 143.286C264.338 140.881 263.652 136.878 264.681 134.565C264.835 134.21 265.367 133.935 265.412 133.562C265.475 133.047 264.795 132.188 264.583 131.724C263.887 130.224 263.326 128.664 262.908 127.063C262.815 126.817 262.803 126.548 262.874 126.296C262.974 126.096 263.123 125.927 263.309 125.803C264.984 124.457 266.664 123.112 268.453 121.898C269.671 121.056 271.289 119.807 272.832 119.338Z" fill="#FCFDF7"/>
<path d="M286.971 109.15C286.125 111.848 282.586 116.595 278.539 115.501C279.015 116.364 279.237 117.344 279.181 118.328C279.124 119.312 278.79 120.259 278.219 121.062C278.219 121.062 279.534 124.423 288.417 119.452C288.417 119.452 286.016 119.252 286.668 114.299C286.863 112.6 287.463 110.974 288.417 109.557C288.308 109.663 288.173 109.739 288.026 109.776C287.878 109.813 287.724 109.811 287.577 109.77C287.431 109.729 287.298 109.65 287.191 109.541C287.085 109.433 287.009 109.298 286.971 109.15Z" fill="#FDBAAC"/>
<path d="M286.56 110.507C286.56 110.507 284.611 118.805 281.306 118.456C278.002 118.106 278.214 113.056 278.214 113.056L286.56 110.507Z" fill="#DEA095"/>
<path d="M303.817 126.427C304.045 123.881 303.288 121.345 301.702 119.343C299.849 117.179 297.008 116.205 294.362 115.152C293.218 114.705 292.029 114.127 291.555 113.016C291.24 112.283 291.309 111.447 291.183 110.656C291.057 109.866 290.611 109.007 289.8 108.898C289.554 108.884 289.307 108.918 289.075 109C288.842 109.082 288.628 109.209 288.445 109.374C286.764 110.668 286.227 113.044 286.61 115.134C286.993 117.225 288.142 119.074 289.331 120.827C290.52 122.579 291.778 124.331 292.452 126.341C292.961 127.87 293.11 129.497 293.481 131.066C294.304 134.501 297.191 136.563 300.581 134.605C302.919 133.247 303.651 128.838 303.817 126.427Z" fill="#EE6352"/>
<path d="M277.828 90.1328C277.828 90.1328 272.443 90.4478 270.842 98.2645C269.241 106.081 277.022 105.949 277.022 105.949L281.749 92.3891L277.828 90.1328Z" fill="#EE6352"/>
<path d="M281.42 115.902C276.543 116.308 273.582 111.75 273.033 105.794C272.976 105.142 272.953 104.477 272.953 103.796C272.944 101.854 273.167 99.9181 273.617 98.0293C275.749 88.8668 288.743 92.549 288.743 92.549C298.924 97.1245 289.892 115.197 281.42 115.902Z" fill="#FDBAAC"/>
<path d="M277.93 92.3433C279.199 96.7584 280.897 103.035 285.201 105.457C285.693 105.732 286.602 106.196 287.191 106.075C287.779 105.955 287.762 105.417 288.3 104.93C288.467 104.763 288.681 104.653 288.913 104.613C289.145 104.573 289.384 104.606 289.597 104.707C289.773 104.84 289.913 105.013 290.006 105.213C290.098 105.413 290.141 105.632 290.129 105.852C290.131 106.394 289.993 106.927 289.728 107.399C289.464 107.872 289.082 108.268 288.62 108.549C288.194 108.745 287.786 108.979 287.402 109.248C286.974 109.671 286.717 110.238 286.682 110.84C286.608 111.65 286.767 112.464 287.14 113.186C287.512 113.908 288.083 114.509 288.786 114.917C288.873 114.972 288.974 115.004 289.077 115.009C289.202 114.983 289.315 114.917 289.397 114.82L291.324 113.056C292.241 112.276 293.068 111.394 293.788 110.428C294.672 109.116 295.15 107.572 295.16 105.99C295.16 105.274 294.874 104.552 294.885 103.865C295.006 102.959 295.246 102.073 295.6 101.231C296.031 100.137 296.252 98.9711 296.251 97.7949C296.097 95.5043 294.193 93.6833 292.141 92.6411C288.894 91.0319 285.144 90.8487 281.52 90.8086C280.797 90.7623 280.072 90.8596 279.387 91.0949C278.764 91.4442 278.507 92.1314 277.93 92.3433Z" fill="#EE6352"/>
<path d="M286.562 147.97L290.284 156.159C290.284 156.159 298.287 146.161 301.334 135.366C303.998 125.826 299.276 123.427 299.276 123.427C295.663 122.098 293.211 127.258 289.661 137.68C287.706 143.389 286.562 147.97 286.562 147.97Z" fill="#FDBAAC"/>
<path d="M290.284 156.142C290.284 156.142 290.427 149.482 287.185 148.159C283.944 146.837 261.226 143.269 261.226 143.269L259.094 145.731C259.094 145.731 281.4 158.616 290.284 156.142Z" fill="#FDBAAC"/>
<path d="M253.467 173.74L253.741 173.454C252.638 174.696 251.901 175.59 251.672 175.864C252.232 175.124 252.83 174.416 253.467 173.74Z" fill="#DC9ED5"/>
<path d="M296.958 175.045C296.295 178.922 293.654 182.255 290.435 184.517C287.217 186.779 283.455 188.107 279.688 189.253C277.464 189.934 276.081 192.792 274.074 193.977C273.344 194.336 272.71 194.867 272.228 195.523C271.496 196.709 271.862 198.243 272.228 199.583C273.931 205.512 275.646 211.439 277.373 217.364C278.225 220.308 279.088 223.429 278.276 226.389C277.464 229.35 274.354 231.898 271.456 230.919C265.789 221.756 260.122 212.594 254.455 203.432C254.455 203.432 251.659 192.368 257.525 182.959C260.057 178.905 279.894 162.172 279.894 162.172C284.964 161.433 290.121 161.09 295.02 160.809C295.597 165.585 297.781 170.304 296.958 175.045Z" fill="#68E1FD"/>
<path d="M279.911 162.155C279.911 162.155 259.669 178.659 257.542 182.942C251.602 194.893 254.472 203.414 254.472 203.414C249.518 211.397 244.563 219.38 239.609 227.363C236.179 227.437 231.554 226.504 231.383 223.056C231.403 222.085 231.634 221.13 232.057 220.256C235.792 210.937 239.525 201.622 243.256 192.311C245.469 186.767 247.761 181.11 251.305 176.357L251.62 175.944V175.91L251.665 175.853C251.894 175.578 252.631 174.707 253.735 173.442V173.407C256.953 169.805 263.236 163.357 269.044 160.809C269.044 160.809 275.784 162.67 279.848 162.172L279.911 162.155Z" fill="#68E1FD"/>
<path d="M279.911 162.155C279.911 162.155 259.669 178.659 257.542 182.942C251.602 194.893 254.472 203.414 254.472 203.414C249.518 211.397 244.563 219.38 239.609 227.363C236.179 227.437 231.554 226.504 231.383 223.056C231.403 222.085 231.634 221.13 232.057 220.256C235.792 210.937 239.525 201.622 243.256 192.311C245.469 186.767 247.761 181.11 251.305 176.357L251.62 175.944V175.91L251.665 175.853C251.894 175.578 252.631 174.707 253.735 173.442V173.407C256.953 169.805 263.236 163.357 269.044 160.809C269.044 160.809 275.784 162.67 279.848 162.172L279.911 162.155Z" fill="url(#paint4_linear_4033_10395)"/>
<path d="M269.516 236.159C268.19 237.384 266.423 238.61 266.486 240.419C266.48 240.598 266.53 240.775 266.629 240.923C266.813 241.106 267.062 241.209 267.321 241.21C271.402 241.662 275.198 239.171 278.371 236.554C279.171 235.896 280.006 235.14 280.194 234.12C280.383 233.101 279.846 232.076 279.383 231.137C278.631 229.61 278.017 228.02 277.548 226.384C277.691 226.871 275.638 228.6 275.29 228.903C274.558 229.545 273.477 230.009 272.906 230.787C272.334 231.566 272.214 232.505 271.762 233.279C271.168 234.35 270.41 235.322 269.516 236.159Z" fill="#EB9D80"/>
<path d="M227.383 228.497C225.948 229.007 224.284 229.281 223.381 230.501C223.204 230.718 223.099 230.984 223.078 231.263C223.078 232.019 223.953 232.408 224.69 232.58C227.634 233.181 230.676 232.757 233.648 232.328C234.114 232.336 234.566 232.167 234.913 231.856C235.261 231.546 235.479 231.115 235.523 230.65L236.695 227.031C236.745 226.926 236.759 226.807 236.735 226.693C236.685 226.582 236.601 226.49 236.495 226.43C235.691 225.866 234.836 225.381 233.94 224.981C232.733 224.408 232.653 224.46 231.847 225.416C230.652 226.815 229.113 227.877 227.383 228.497Z" fill="#EB9D80"/>
<path d="M258.789 142.816C256.44 142.444 253.798 142.141 251.901 143.567C250.999 144.343 250.261 145.291 249.728 146.355C249.357 146.991 248.979 147.753 249.282 148.417C249.585 149.081 250.328 149.287 250.997 149.453C253.164 149.98 255.496 150.473 257.571 149.66C259.103 149.087 260.344 147.787 261.95 147.403C262.222 147.366 262.484 147.277 262.722 147.14C262.942 146.957 263.096 146.708 263.162 146.43C264.128 143.2 260.939 143.12 258.789 142.816Z" fill="#FDBAAC"/>
<path d="M233.619 235.077C233.537 235.245 233.41 235.388 233.253 235.489C233.016 235.572 232.758 235.572 232.521 235.489C231.195 235.31 229.855 235.264 228.52 235.352C225.782 235.308 223.051 235.059 220.351 234.607C219.173 234.435 217.864 234.189 217.184 233.216C217.095 233.105 217.04 232.972 217.023 232.832C217.031 232.619 217.114 232.416 217.258 232.259C218.442 230.838 219.998 229.776 221.751 229.19C222.4 228.914 223.094 228.763 223.798 228.743C224.15 228.736 224.5 228.807 224.822 228.951C225.144 229.094 225.43 229.307 225.661 229.573C226.147 230.192 226.233 231.08 226.765 231.635C227.296 232.19 228.211 232.259 229.011 232.208C229.94 232.174 230.865 232.069 231.778 231.893C232.47 231.761 233.493 231.286 234.179 231.463C235.785 231.904 234.07 234.269 233.619 235.077Z" fill="#68E1FD"/>
<path d="M281.222 236.216C281.254 236.428 281.226 236.644 281.142 236.84C280.972 237.073 280.728 237.24 280.45 237.316C279.069 237.99 277.76 238.806 276.546 239.75C273.939 241.443 271.208 242.939 268.377 244.222C267.153 244.795 265.753 245.407 264.489 244.921C264.337 244.872 264.201 244.783 264.095 244.663C263.969 244.458 263.92 244.214 263.958 243.976C264.171 241.876 264.963 239.878 266.244 238.203C266.686 237.531 267.25 236.948 267.908 236.485C268.237 236.255 268.612 236.1 269.007 236.031C269.402 235.962 269.807 235.98 270.195 236.085C271.046 236.359 271.675 237.155 272.55 237.333C273.425 237.51 274.322 237.007 275.059 236.468C275.919 235.842 276.729 235.151 277.483 234.401C278.055 233.828 278.712 232.74 279.484 232.465C281.256 231.83 281.159 235.151 281.222 236.216Z" fill="#68E1FD"/>
<path d="M302.781 126.674C303.343 128.423 303.727 130.224 303.925 132.051L304.273 134.513C304.397 135.024 304.369 135.559 304.193 136.054C303.787 136.918 302.147 136.563 301.335 136.695C299.883 136.93 298.437 137.159 296.985 137.382C294.081 137.829 291.177 138.256 288.272 138.665C288.119 137.187 288.156 135.696 288.381 134.227C288.65 132.83 289.25 131.518 289.593 130.138C289.873 128.993 289.976 127.848 290.268 126.702C290.881 124.349 292.282 122.277 294.235 120.833C297.293 118.594 301.781 124.017 302.718 126.456L302.781 126.674Z" fill="#FCFDF7"/>
<path d="M322.407 170.556C318.611 179.323 310.07 185.37 300.918 188.085C293.784 190.198 286.266 190.524 278.789 190.095C278.789 189.585 279.086 189.276 279.709 189.247C286.872 188.886 289.839 179.455 291.989 174.656C294.138 169.857 295.607 163.827 309.596 158.267C323.224 152.861 321.561 142.691 322.241 144.741C325.46 154.384 326.443 161.227 322.407 170.556Z" fill="#2F3653"/>
<path d="M323.385 170.957C319.589 179.718 311.048 185.765 301.896 188.485C294.762 190.593 285.18 190.954 277.703 190.518C277.703 190.014 279.087 189.276 279.71 189.247C286.873 188.886 290 177.685 292.149 172.886C294.298 168.088 296.271 165.27 309.596 158.267C329.507 147.81 315.101 133.585 314.85 132.675C319.623 134.215 322.281 143.933 322.956 145.983C326.174 155.627 327.421 161.622 323.385 170.957Z" fill="#FCFDF7"/>
<path opacity="0.23" d="M296.34 186.951C290.287 188.497 283.878 188.554 277.984 190.644C279.854 189.98 283.77 191.011 285.85 190.948C288.71 190.861 291.559 190.56 294.374 190.049C299.353 189.144 305.95 187.758 310.055 184.683C307.379 182.404 299.302 186.195 296.34 186.951Z" fill="#68E1FD"/>
<path d="M299.97 240.442C299.878 240.5 299.778 240.545 299.673 240.574C299.486 240.624 299.292 240.634 299.101 240.603C296.98 240.339 286.57 190.685 286.57 190.685L287.994 189.854C288.097 189.797 288.217 189.734 288.32 189.688C288.682 189.535 289.072 189.457 289.465 189.458C289.858 189.459 290.248 189.54 290.609 189.696C290.97 189.851 291.297 190.079 291.568 190.364C291.84 190.649 292.051 190.986 292.19 191.355V191.412C292.249 191.562 292.293 191.717 292.321 191.876L300.507 237.35C300.507 237.35 300.993 239.744 299.97 240.442Z" fill="#68E1FD"/>
<path d="M300.203 236.353C300.203 236.353 300.117 239.217 299.969 240.442C299.877 241.015 299.791 241.244 299.671 240.574C298.648 234.567 290.148 197.694 288.312 189.699C288.675 189.546 289.065 189.468 289.458 189.469C289.851 189.471 290.24 189.551 290.602 189.707C290.963 189.863 291.29 190.09 291.561 190.375C291.833 190.66 292.044 190.997 292.183 191.366V191.423L300.203 236.353Z" fill="url(#paint5_linear_4033_10395)"/>
<path d="M80.7349 182.851C80.7349 182.851 64.8599 234.24 66.5749 235.5C68.2899 236.76 69.3875 233.336 69.3875 233.336L85.4397 185.576L80.7349 182.851Z" fill="#68E1FD"/>
<path d="M114.922 188.783L115.071 189.155L133.192 235.729C133.466 236.449 133.88 237.106 134.41 237.665C134.513 237.789 134.64 237.89 134.784 237.963C134.927 238.036 135.084 238.079 135.245 238.088C135.406 238.098 135.567 238.074 135.718 238.019C135.869 237.964 136.008 237.879 136.125 237.768C137.783 236.428 120.759 188.651 120.759 188.651L114.922 188.783Z" fill="#68E1FD"/>
<path d="M101.391 185.365C101.391 185.365 101.962 239.16 103.975 239.83C105.987 240.5 106.021 236.903 106.021 236.903L106.707 186.51L101.391 185.365Z" fill="#68E1FD"/>
<path d="M83.5746 183.475C83.5746 183.475 66.2647 233.295 67.9968 234.532C69.729 235.769 69.3745 233.33 69.3745 233.33L85.4382 185.576L83.5746 183.475Z" fill="url(#paint6_linear_4033_10395)"/>
<path d="M115.07 189.156L133.192 235.73C133.466 236.449 133.88 237.107 134.41 237.665C134.352 232.328 118.923 189.07 118.923 189.07L115.07 189.156Z" fill="url(#paint7_linear_4033_10395)"/>
<path d="M101.391 185.365C101.391 185.365 101.962 239.16 103.975 239.83C105.987 240.5 104.746 235.775 104.746 235.775L104.032 185.955L101.391 185.365Z" fill="url(#paint8_linear_4033_10395)"/>
<path d="M66.1861 170.556C69.9819 179.323 78.5225 185.37 87.6748 188.084C94.8092 190.198 102.327 190.524 109.804 190.094C111.896 189.984 113.983 189.823 116.064 189.613C119.722 189.247 123.432 188.772 126.857 187.432C130.281 186.092 133.471 183.778 135.209 180.508C136.27 178.357 136.855 176.001 136.923 173.602C137.284 167.452 135.34 160.912 130.635 156.995C126.942 153.903 122.123 152.7 118.293 149.831C114.006 146.607 109.604 143.727 105.065 140.829C100.526 137.932 95.9182 135.005 90.8418 133.161C85.7655 131.318 80.106 130.625 74.9725 132.257C73.1947 132.829 70.4564 134.209 67.7753 140.783C63.9166 150.181 62.1501 161.227 66.1861 170.556Z" fill="#2F3653"/>
<path d="M79.7867 138.636C80.4709 140.105 81.0034 141.64 81.3759 143.218C81.7189 145.142 82.3077 147.031 82.645 148.973C83.3238 152.865 83.6472 156.812 83.6111 160.764C83.6111 162.327 83.6111 164.091 84.7258 165.173C85.4804 165.9 86.5608 166.135 87.5841 166.318C89.6021 166.725 91.4257 167.527 93.4436 167.87C95.6428 168.19 97.8648 168.324 100.086 168.271C106.638 168.271 118.825 167.538 118.42 158.387C118.028 148.056 117.12 137.75 115.698 127.51C115.207 124.039 115.127 120.037 114.058 116.698C113.177 113.886 109.908 113.863 107.198 114.15L106.683 114.207C106.157 114.259 105.631 114.327 105.123 114.39C101.515 114.766 97.8846 114.873 94.2611 114.711C90.1852 114.585 83.6568 114.178 79.6495 118.027C79.3709 118.29 79.1093 118.571 78.8663 118.868C74.8818 123.742 77.0198 131.65 79.7867 138.636Z" fill="#FCFDF7"/>
<path opacity="0.43" d="M94.9789 137.623C95.3276 142.204 94.0299 147.089 96.4309 150.92C96.5409 151.135 96.7146 151.311 96.9282 151.424C97.273 151.491 97.6302 151.451 97.9515 151.309C98.3214 151.235 98.7028 151.241 99.0705 151.325C99.4381 151.41 99.7836 151.572 100.084 151.8C100.385 152.029 100.633 152.319 100.813 152.651C100.994 152.982 101.102 153.349 101.13 153.726C101.7 153.296 102.171 152.749 102.513 152.122C102.855 151.495 103.06 150.802 103.114 150.089C103.165 149.293 103.114 148.326 103.777 147.89C104.634 147.318 105.743 148.331 105.926 149.339C106.109 150.347 105.823 151.412 106.109 152.397C106.475 153.686 107.761 154.527 109.065 154.802C110.391 154.998 111.74 154.998 113.066 154.802C114.029 154.658 115.013 154.762 115.925 155.106C116.805 155.524 117.485 156.526 117.217 157.465C116.896 158.582 115.547 158.971 114.404 159.183L98.7061 162.115L90.6285 163.627C88.8621 163.953 85.7408 165.517 85.6836 162.9C85.6008 158.985 84.9893 155.1 83.8658 151.349C83.4142 149.837 83.3627 148.291 82.9225 146.825C82.3852 145.044 81.3962 143.338 80.7902 141.557C79.5691 137.976 78.7466 134.272 78.3378 130.51C78.052 127.865 78.2349 124.675 80.4987 123.295C82.1336 122.304 84.3345 122.722 85.8723 123.868C87.7473 125.259 88.6106 127.447 90.3427 128.913C92.3549 130.631 93.9213 132.566 94.5959 135.183C94.7934 135.984 94.9216 136.8 94.9789 137.623Z" fill="#D9DBE2"/>
<path d="M102.986 121.296C102.856 121.469 102.758 121.662 102.694 121.869C102.681 122.094 102.726 122.319 102.826 122.522C105.032 128.065 106.416 133.894 107.788 139.701C109 144.809 110.217 149.957 110.469 155.203C110.506 155.587 110.477 155.974 110.383 156.348C109.983 157.642 108.296 158.066 107.559 159.183L105.107 156.377C104.946 156.211 104.818 156.017 104.729 155.804C104.655 155.507 104.655 155.196 104.729 154.899C105.558 149.293 104.638 143.572 103.329 138.052C102.185 133.31 100.773 128.563 100.859 123.69C100.859 123.117 100.859 122.418 100.419 122.035C100.169 121.865 99.8955 121.734 99.6072 121.645C99.2798 121.485 98.9877 121.26 98.7478 120.985C98.508 120.71 98.3253 120.39 98.2103 120.044C98.0954 119.697 98.0505 119.331 98.0783 118.967C98.1061 118.603 98.2061 118.248 98.3724 117.923C98.8928 117.914 99.4039 117.783 99.8644 117.54C100.33 117.297 100.867 117.226 101.379 117.339C102.511 117.728 103.632 120.231 102.986 121.296Z" fill="#68E1FD"/>
<path d="M79.6562 118.038C83.6579 114.19 90.192 114.602 94.2679 114.722C97.8914 114.885 101.522 114.778 105.129 114.402C105.638 114.339 106.164 114.27 106.69 114.218C104.535 113.336 101.477 113.926 99.1785 114.001C95.6952 114.115 92.2137 114.327 88.7342 114.636C85.4415 114.94 81.7943 115.507 79.6562 118.038Z" fill="#FCFDF7"/>
<path d="M92.0122 103.642C92.9269 106.505 96.6198 109.265 100.942 108.074C100.942 108.074 99.2266 113.228 101.37 116.372C101.37 116.372 99.9698 119.962 90.4688 114.654C90.4688 114.654 93.0355 114.442 92.3381 109.162C92.1322 107.346 91.4908 105.608 90.4688 104.094C90.5863 104.208 90.7317 104.288 90.8903 104.327C91.0488 104.366 91.2148 104.362 91.3715 104.316C91.5282 104.271 91.67 104.184 91.7826 104.065C91.8951 103.947 91.9743 103.801 92.0122 103.642Z" fill="#D5846C"/>
<path d="M96.6714 110.301C101.679 111.779 105.761 107.644 107.619 101.528C107.819 100.864 107.99 100.165 108.133 99.4554C108.564 97.4252 108.756 95.3514 108.705 93.2765C108.413 83.2608 94.0131 84.2801 94.0131 84.2801C82.3855 86.8742 87.9535 107.736 96.6714 110.301Z" fill="#EB9D80"/>
<path d="M127.821 172.652L127.523 172.342C128.701 173.671 129.496 174.633 129.736 174.919C129.141 174.14 128.495 173.379 127.821 172.652Z" fill="#DC9ED5"/>
<path d="M84.9308 84.9786C85.7978 83.1668 87.2446 81.6974 89.0411 80.804C90.6875 79.9336 93.0884 80.1054 94.4376 78.7482C95.1636 78.0209 95.3065 76.9157 95.7238 75.9766C96.1516 75.0316 96.8683 74.2475 97.7704 73.7375C98.3585 73.4021 99.0156 73.2062 99.6911 73.1648C101.778 73.0675 103.658 74.6824 104.465 76.6007C105.036 75.6559 106.22 75.2894 107.323 75.3123C109.861 75.3638 112.188 77.1619 113.234 79.4812C113.663 80.388 113.86 81.388 113.805 82.3902C113.748 83.4007 113.311 84.352 112.582 85.0531C112.429 85.214 112.229 85.3222 112.01 85.3623C111.904 85.3807 111.795 85.3609 111.702 85.3064C111.609 85.252 111.538 85.1663 111.502 85.0645C110.781 86.5845 109.885 88.0145 108.832 89.3251C108.477 89.8134 108.008 90.2068 107.466 90.4704C106.926 90.6631 106.343 90.6969 105.785 90.5677C105.019 90.4255 104.287 90.142 103.624 89.7316C103.507 89.6361 103.357 89.5908 103.207 89.6057C103.058 89.6457 102.978 89.7946 102.904 89.9321C102.699 90.3345 102.412 90.6899 102.063 90.9758C101.714 91.2616 101.309 91.4717 100.874 91.5928C100.113 91.6958 99.3395 91.6667 98.5878 91.5069C97.5571 91.378 96.5144 91.378 95.4837 91.5069C94.8538 91.5611 94.2441 91.7568 93.7001 92.0795C93.37 92.3275 93.102 92.6492 92.9175 93.0189C92.7329 93.3887 92.6368 93.7964 92.6368 94.2098C92.6368 94.5362 92.957 97.2277 92.5625 97.2906C91.928 97.3994 91.8022 96.3458 91.2477 96.0194C90.6932 95.6929 90.1558 96.1167 89.87 96.592C89.6355 97.0038 89.5343 97.4783 89.5804 97.9501C89.6264 98.4219 89.8175 98.8678 90.1272 99.2262C90.3192 99.3901 90.4684 99.5985 90.5617 99.8332C90.5943 100.07 90.5545 100.312 90.4474 100.526L89.4698 102.989C88.1605 99.8904 86.5904 96.9095 84.7765 94.0781C84.0047 92.9328 83.1072 91.6558 83.4502 90.3329C83.7932 89.0101 85.2224 88.0423 84.9251 86.7539C84.8679 86.5076 84.7479 86.2786 84.7136 86.0266C84.6865 85.6638 84.7618 85.3007 84.9308 84.9786Z" fill="#EE6352"/>
<path d="M93.1875 160.998C93.1875 160.998 99.2871 176.248 104.181 177.846C109.074 179.443 139.452 188.629 139.452 188.629L152.366 232.46L155.704 230.409C156.968 229.631 159.986 228.508 160.752 227.243C161.77 225.576 160.238 221.201 159.946 219.306L158.626 210.716C156.85 199.103 155.068 187.487 153.281 175.87C153.282 175.295 153.105 174.734 152.776 174.264C152.446 173.793 151.98 173.436 151.44 173.242C145.464 170.036 139.325 167.144 133.049 164.577C129.974 163.318 126.87 162.149 123.743 161.038C123.125 160.821 118.546 158.313 118.421 158.41C118.381 158.427 115.134 160.872 93.1875 160.998Z" fill="#2F3653"/>
<path d="M148.74 234.069C147.334 230.953 147.214 227.443 146.802 224.053C146.499 221.499 146.013 218.973 145.527 216.448L138.885 181.7C138.858 180.96 138.602 180.247 138.152 179.66C137.702 179.073 137.081 178.641 136.375 178.424C125.708 173.207 115.223 167.733 104.648 162.31C104.648 162.31 93.2145 158.152 84.7253 163.959C84.7253 163.959 83.582 177.868 88.4754 179.466C99.2875 182.998 110.185 186.223 121.169 189.144C121.685 189.249 122.172 189.464 122.598 189.774C123.078 190.254 123.411 190.862 123.558 191.526C127.56 203.729 131.562 215.938 135.214 228.239C135.649 229.69 136.078 231.138 136.501 232.585C136.827 233.691 137.072 236.594 137.878 237.361C138.947 238.444 140.359 237.361 141.789 236.789L149.586 233.639L124.364 172.434L120.694 170.544" fill="#4C516C"/>
<path d="M166.306 228.182C167.598 228.212 168.886 228.341 170.159 228.566C171.349 228.697 172.479 229.157 173.423 229.894C173.958 230.363 174.315 231.002 174.435 231.704C174.487 232.053 174.46 232.411 174.357 232.749C174.253 233.087 174.074 233.397 173.834 233.656C173.375 234.053 172.834 234.344 172.251 234.51C170.89 234.991 169.528 235.466 168.164 235.936C165.242 236.943 162.276 237.963 159.189 238.129C159.006 238.154 158.819 238.134 158.645 238.072C158.512 238.004 158.392 237.913 158.291 237.802C156.439 235.987 154.69 233.857 154.244 231.297C154.221 231.211 154.221 231.12 154.244 231.034C154.293 230.938 154.368 230.859 154.461 230.805C156.325 229.542 158.373 228.576 160.532 227.941C162.487 227.374 164.328 228.142 166.306 228.182Z" fill="#2F3653"/>
<path d="M151.53 234.057C152.822 234.088 154.11 234.216 155.383 234.441C156.573 234.572 157.703 235.032 158.647 235.77C159.182 236.238 159.539 236.877 159.659 237.579C159.711 237.929 159.684 238.286 159.58 238.624C159.477 238.962 159.298 239.272 159.058 239.532C158.599 239.928 158.058 240.219 157.475 240.385C156.114 240.866 154.752 241.341 153.387 241.811C150.466 242.819 147.499 243.838 144.412 244.004C144.22 244.034 144.023 244.015 143.841 243.947C143.707 243.88 143.587 243.788 143.486 243.678C141.634 241.863 139.885 239.732 139.439 237.173C139.416 237.086 139.416 236.995 139.439 236.909C139.488 236.814 139.564 236.735 139.656 236.68C141.52 235.417 143.568 234.451 145.727 233.817C147.711 233.25 149.523 234.012 151.53 234.057Z" fill="#2F3653"/>
<path d="M66.1895 170.556C69.9854 179.323 78.526 185.37 87.6783 188.085C94.8126 190.198 102.33 190.524 109.807 190.095C109.807 189.585 109.51 189.276 108.887 189.247C101.724 188.886 98.7571 179.455 96.6077 174.656C94.4582 169.857 92.989 163.827 79.0005 158.267C65.3721 152.861 67.0356 142.691 66.3553 144.741C63.1483 154.384 62.1536 161.227 66.1895 170.556Z" fill="#2F3653"/>
<path d="M65.2135 170.957C69.0094 179.718 77.55 185.766 86.7023 188.486C93.8366 190.593 103.418 190.954 110.895 190.519C110.895 190.015 109.512 189.276 108.888 189.247C101.726 188.887 98.5986 177.686 96.4491 172.887C94.2997 168.088 92.3046 165.27 79.002 158.278C59.091 147.822 73.4969 133.597 73.7484 132.687C68.9751 134.227 66.3168 143.945 65.6423 145.995C62.4238 155.627 61.1776 161.623 65.2135 170.957Z" fill="#FCFDF7"/>
<path opacity="0.23" d="M92.2532 186.951C98.3071 188.497 104.715 188.554 110.609 190.644C108.74 189.98 104.824 191.011 102.743 190.948C99.8856 190.861 97.0384 190.56 94.2255 190.049C89.2406 189.144 82.6493 187.758 78.5391 184.683C81.2144 182.404 89.292 186.195 92.2532 186.951Z" fill="#68E1FD"/>
<path d="M88.6244 240.442C88.7167 240.5 88.8168 240.545 88.9216 240.574C89.108 240.624 89.3029 240.634 89.4933 240.603C91.6142 240.339 102.024 190.685 102.024 190.685L100.601 189.854C100.498 189.797 100.378 189.734 100.275 189.688C99.9124 189.535 99.5228 189.457 99.1294 189.458C98.736 189.459 98.3469 189.54 97.9855 189.696C97.6241 189.851 97.2978 190.079 97.0261 190.364C96.7545 190.649 96.5431 190.986 96.4047 191.355V191.412C96.341 191.561 96.295 191.716 96.2675 191.876L88.0813 237.35C88.0813 237.35 87.6011 239.744 88.6244 240.442Z" fill="#68E1FD"/>
<path d="M88.3906 236.353C88.3906 236.353 88.4764 239.217 88.625 240.442C88.7165 241.015 88.8022 241.244 88.9223 240.574C89.9455 234.567 98.4462 197.694 100.281 189.699C99.9187 189.546 99.5291 189.468 99.1357 189.469C98.7424 189.471 98.3533 189.551 97.9918 189.707C97.6304 189.863 97.3041 190.09 97.0325 190.375C96.7608 190.66 96.5495 190.997 96.411 191.366V191.423L88.3906 236.353Z" fill="url(#paint9_linear_4033_10395)"/>
<path d="M100.039 166.496C99.913 167.245 99.5188 167.923 98.93 168.403C98.2959 168.927 97.5347 169.275 96.7234 169.411C95.1742 169.657 93.5907 169.227 92.0929 168.758C87.2963 167.268 82.6324 165.38 78.1501 163.111C76.6752 162.367 75.1603 161.531 74.2742 160.134C73.2967 158.564 73.2853 156.589 73.3367 154.745C73.5583 147.022 74.2244 139.319 75.3318 131.673C75.812 128.288 75.772 123.049 77.7957 119.819C78.2912 118.971 78.9941 118.263 79.8382 117.762C80.6823 117.261 81.6398 116.983 82.6205 116.956C85.8332 116.761 88.4915 119.819 89.0803 122.98C89.6691 126.141 88.7544 129.382 87.937 132.497C86.7936 136.987 85.7989 141.54 85.0786 146.121C84.7414 148.159 84.4784 150.37 85.4559 152.197C85.918 152.985 86.4962 153.7 87.1709 154.315C89.8895 156.968 92.8851 159.32 96.106 161.33C98.0554 162.562 100.376 164.222 100.039 166.496Z" fill="#FCFDF7"/>
<path d="M145.331 139.736C145.175 140.541 144.843 141.301 144.361 141.964C143.879 142.627 143.258 143.176 142.542 143.572C141.107 144.355 139.567 144.924 137.968 145.262L131.406 146.98C127.976 147.885 123.843 148.6 121.299 146.121C120.845 145.703 120.503 145.178 120.303 144.594C120.104 144.01 120.053 143.385 120.155 142.777C120.227 142.468 120.361 142.177 120.55 141.923C121.033 141.39 121.616 140.956 122.265 140.646C124.157 139.523 125.804 138.029 127.107 136.254C123.22 134.799 119.172 133.316 115.919 130.791C115.314 130.335 114.741 129.838 114.204 129.302C111.813 126.89 110.189 123.82 109.54 120.483C109.254 119.086 108.768 116.749 109.277 115.364C109.968 113.468 111.272 114.344 113.124 114.877C120.207 116.916 126.758 120.552 132.612 124.978C135.986 127.564 139.178 130.381 142.164 133.408C143.885 135.132 145.669 137.302 145.331 139.736Z" fill="#FCFDF7"/>
<path opacity="0.38" d="M129.726 138.424C127.439 140.01 125.084 141.539 122.706 143.005C122.014 143.435 121.054 143.853 120.465 143.28C120.302 143.129 120.195 142.927 120.162 142.708C120.233 142.399 120.368 142.108 120.557 141.854C121.04 141.321 121.623 140.887 122.272 140.577C124.164 139.454 125.811 137.96 127.114 136.185C123.215 134.799 119.167 133.316 115.915 130.791C115.915 130.636 115.915 130.481 115.915 130.31C115.915 129.737 115.795 125.568 115.469 125.368L130.08 134.427C130.648 134.695 131.105 135.152 131.372 135.721C131.744 136.781 130.681 137.771 129.726 138.424Z" fill="#D9DBE2"/>
<path d="M115.567 146.946C115.148 148.017 114.925 149.156 114.909 150.307C114.743 151.871 114.994 153.452 115.635 154.888C116.356 156.28 117.848 157.362 119.403 157.179C119.934 157.1 120.442 156.905 120.891 156.608C121.339 156.312 121.717 155.92 121.998 155.461C122.556 154.536 122.855 153.478 122.861 152.397C123.576 152.214 123.97 151.447 124.147 150.725C124.242 149.991 124.471 149.28 124.822 148.629C125.256 148.016 126.005 147.673 126.371 147.014C126.522 146.703 126.595 146.359 126.584 146.013C126.573 145.667 126.478 145.329 126.308 145.027C125.371 143.212 122.438 141.643 120.517 142.485C118.597 143.326 116.459 144.901 115.567 146.946Z" fill="#EB9D80"/>
<path d="M97.1358 168.214C98.342 170.012 100.892 170.252 103.03 169.932C105.211 169.616 107.321 168.918 109.261 167.87C109.776 167.656 110.198 167.263 110.45 166.765C110.559 166.414 110.559 166.039 110.45 165.688C110.274 165.103 109.98 164.561 109.587 164.094C109.194 163.627 108.709 163.246 108.163 162.974C107.068 162.436 105.904 162.051 104.705 161.829C102.767 161.388 100.703 160.947 98.8337 161.599C96.9643 162.252 96.6156 162.172 96.4098 164.05C96.3012 165.413 96.3527 167.063 97.1358 168.214Z" fill="#EB9D80"/>
<path d="M91.282 112.26L95.1635 114.276C96.5322 114.913 97.8152 115.722 98.9822 116.681C98.2748 118.255 97.814 119.93 97.616 121.646C96.5949 120.371 95.4087 119.239 94.0888 118.278C92.8597 117.465 91.4306 116.961 90.2816 116.028C88.9267 114.928 90.5903 113.382 91.282 112.26Z" fill="#FCFDF7"/>
<path d="M103.452 116.085L105.264 118.502C105.387 118.64 105.474 118.808 105.516 118.988C104.12 118.333 102.649 117.852 101.137 117.557C101.054 117.554 100.972 117.533 100.898 117.495C100.824 117.458 100.759 117.404 100.708 117.339C100.654 117.218 100.644 117.083 100.679 116.955C100.793 116.048 100.64 115.126 100.239 114.304C100.075 114.048 99.9674 113.758 99.9247 113.457C99.8504 112.117 101.274 113.525 101.605 113.852C102.275 114.55 102.892 115.296 103.452 116.085Z" fill="#FCFDF7"/>
<path opacity="0.41" d="M219.485 117.557V122.711C219.485 123.792 219.273 124.862 218.861 125.861C218.448 126.861 217.843 127.768 217.081 128.533C216.318 129.298 215.412 129.904 214.415 130.318C213.418 130.732 212.349 130.945 211.27 130.945H141.653C139.475 130.938 137.388 130.064 135.853 128.517C134.317 126.97 133.456 124.875 133.461 122.693V117.54L219.485 117.557Z" fill="#68E1FD"/>
<path opacity="0.43" d="M98.93 168.403C98.2959 168.927 97.5347 169.275 96.7234 169.411C95.1742 169.657 93.5907 169.227 92.0929 168.758C87.2963 167.268 82.6324 165.38 78.1501 163.111C76.6752 162.367 75.1603 161.531 74.2742 160.134C73.2967 158.564 73.2853 156.589 73.3367 154.745C73.5583 147.022 74.2244 139.319 75.3318 131.673C75.812 128.288 75.772 123.049 77.7957 119.819C78.3916 119.991 78.9759 120.202 79.545 120.449C80.321 120.71 80.9873 121.224 81.4372 121.909C81.9288 122.814 81.723 123.936 81.4886 124.956C79.358 134.685 77.8893 144.547 77.0925 154.476C76.9864 154.939 77.0243 155.424 77.2011 155.865C77.3779 156.306 77.6851 156.683 78.0815 156.944C80.0283 158.706 82.1056 160.318 84.2955 161.766C87.7254 164.056 91.8871 166.679 95.9688 167.435C97.1293 167.658 98.0782 167.67 98.93 168.403Z" fill="#D9DBE2"/>
<path d="M280.079 34.9863H214.766C207.483 34.9863 201.578 40.9011 201.578 48.1974V53.7178C201.578 61.014 207.483 66.9288 214.766 66.9288H280.079C287.362 66.9288 293.267 61.014 293.267 53.7178V48.1974C293.267 40.9011 287.362 34.9863 280.079 34.9863Z" fill="#FCFDF7"/>
<path d="M257.446 77.4772L249.18 65.7207H257.446V77.4772Z" fill="#FCFDF7"/>
</g>
<defs>
<linearGradient id="paint0_linear_4033_10395" x1="174.824" y1="113.835" x2="174.457" y2="164.239" gradientUnits="userSpaceOnUse">
<stop offset="0.01"/>
<stop offset="0.08" stop-opacity="0.69"/>
<stop offset="0.21" stop-opacity="0.32"/>
<stop offset="1" stop-opacity="0"/>
</linearGradient>
<linearGradient id="paint1_linear_4033_10395" x1="303.18" y1="209.187" x2="320.724" y2="209.187" gradientUnits="userSpaceOnUse">
<stop offset="0.01"/>
<stop offset="0.08" stop-opacity="0.69"/>
<stop offset="0.21" stop-opacity="0.32"/>
<stop offset="1" stop-opacity="0"/>
</linearGradient>
<linearGradient id="paint2_linear_4033_10395" x1="263.766" y1="182.828" x2="264.042" y2="275.483" gradientUnits="userSpaceOnUse">
<stop offset="0.01"/>
<stop offset="0.08" stop-opacity="0.69"/>
<stop offset="0.21" stop-opacity="0.32"/>
<stop offset="1" stop-opacity="0"/>
</linearGradient>
<linearGradient id="paint3_linear_4033_10395" x1="303.866" y1="209.387" x2="232.315" y2="222.172" gradientUnits="userSpaceOnUse">
<stop offset="0.01"/>
<stop offset="0.08" stop-opacity="0.69"/>
<stop offset="0.21" stop-opacity="0.32"/>
<stop offset="1" stop-opacity="0"/>
</linearGradient>
<linearGradient id="paint4_linear_4033_10395" x1="314.971" y1="196.789" x2="132.37" y2="188.708" gradientUnits="userSpaceOnUse">
<stop offset="0.01"/>
<stop offset="0.08" stop-opacity="0.69"/>
<stop offset="0.21" stop-opacity="0.32"/>
<stop offset="1" stop-opacity="0"/>
</linearGradient>
<linearGradient id="paint5_linear_4033_10395" x1="314.586" y1="202.939" x2="266.516" y2="231.888" gradientUnits="userSpaceOnUse">
<stop offset="0.01"/>
<stop offset="0.08" stop-opacity="0.69"/>
<stop offset="0.21" stop-opacity="0.32"/>
<stop offset="1" stop-opacity="0"/>
</linearGradient>
<linearGradient id="paint6_linear_4033_10395" x1="85.4154" y1="209.187" x2="67.8711" y2="209.187" gradientUnits="userSpaceOnUse">
<stop offset="0.01"/>
<stop offset="0.08" stop-opacity="0.69"/>
<stop offset="0.21" stop-opacity="0.32"/>
<stop offset="1" stop-opacity="0"/>
</linearGradient>
<linearGradient id="paint7_linear_4033_10395" x1="124.829" y1="182.828" x2="124.553" y2="275.483" gradientUnits="userSpaceOnUse">
<stop offset="0.01"/>
<stop offset="0.08" stop-opacity="0.69"/>
<stop offset="0.21" stop-opacity="0.32"/>
<stop offset="1" stop-opacity="0"/>
</linearGradient>
<linearGradient id="paint8_linear_4033_10395" x1="84.7324" y1="209.387" x2="156.284" y2="222.172" gradientUnits="userSpaceOnUse">
<stop offset="0.01"/>
<stop offset="0.08" stop-opacity="0.69"/>
<stop offset="0.21" stop-opacity="0.32"/>
<stop offset="1" stop-opacity="0"/>
</linearGradient>
<linearGradient id="paint9_linear_4033_10395" x1="74.0019" y1="202.939" x2="122.077" y2="231.888" gradientUnits="userSpaceOnUse">
<stop offset="0.01"/>
<stop offset="0.08" stop-opacity="0.69"/>
<stop offset="0.21" stop-opacity="0.32"/>
<stop offset="1" stop-opacity="0"/>
</linearGradient>
<clipPath id="clip0_4033_10395">
<rect width="388" height="292.94" fill="white" transform="translate(0 0.529785)"/>
</clipPath>
</defs>
</svg>
