<svg width="24" height="19" viewBox="0 0 24 19" fill="none" xmlns="http://www.w3.org/2000/svg">
<path d="M0 3.52466C0 2.72901 0.316071 1.96595 0.87868 1.40334C1.44129 0.840729 2.20435 0.524658 3 0.524658H21C21.7957 0.524658 22.5587 0.840729 23.1213 1.40334C23.6839 1.96595 24 2.72901 24 3.52466V15.5247C24 16.3203 23.6839 17.0834 23.1213 17.646C22.5587 18.2086 21.7957 18.5247 21 18.5247H3C2.20435 18.5247 1.44129 18.2086 0.87868 17.646C0.316071 17.0834 0 16.3203 0 15.5247V3.52466ZM3 2.02466C2.60218 2.02466 2.22064 2.18269 1.93934 2.464C1.65804 2.7453 1.5 3.12683 1.5 3.52466V3.85016L12 10.1502L22.5 3.85016V3.52466C22.5 3.12683 22.342 2.7453 22.0607 2.464C21.7794 2.18269 21.3978 2.02466 21 2.02466H3ZM22.5 5.59916L15.438 9.83666L22.5 14.1822V5.59916ZM22.449 15.9132L13.989 10.7067L12 11.8992L10.011 10.7067L1.551 15.9117C1.63624 16.2309 1.82448 16.513 2.08648 16.7142C2.34849 16.9155 2.66962 17.0246 3 17.0247H21C21.3302 17.0247 21.6512 16.9158 21.9131 16.7148C22.1751 16.5139 22.3635 16.2321 22.449 15.9132ZM1.5 14.1822L8.562 9.83666L1.5 5.59916V14.1822Z" fill="#717171"/>
</svg>
