<svg width="97" height="84" viewBox="0 0 97 84" fill="none" xmlns="http://www.w3.org/2000/svg">
<path d="M32.297 18.7432V33.3651C42.9734 36.3824 50.6325 45.8983 50.6325 57.503C50.6325 71.4287 39.4919 82.5693 25.5662 82.5693C11.6406 82.5693 0.5 71.4287 0.5 57.503C0.5 45.8983 8.39123 36.3824 18.8355 33.3651V18.7432H32.297Z" fill="#FCFDF7"/>
<path d="M81.9655 34.5254V45.2018C81.9655 46.3622 82.4297 48.4511 82.8939 49.6116L96.3554 80.2481C96.8196 81.4085 96.1233 82.3369 94.9628 82.3369H55.5067C54.3462 82.3369 53.65 81.4085 54.1141 80.2481L67.5756 49.6116C68.0398 48.4511 68.504 46.5943 68.504 45.2018V34.5254H81.9655Z" fill="#FCFDF7"/>
<path d="M94.9628 82.3368C96.1233 82.3368 96.8196 81.4084 96.3554 80.2479L89.6247 64.9297H60.8449L54.1141 80.2479C53.65 81.4084 54.3462 82.3368 55.5067 82.3368H94.9628Z" fill="#EE6352"/>
<path d="M25.5662 82.5692C39.4919 82.5692 50.6325 71.4286 50.6325 57.5029H0.5C0.5 71.4286 11.6406 82.5692 25.5662 82.5692Z" fill="#EE6352"/>
<path d="M25.5625 31.5083V5.28155C25.5625 2.7285 27.6514 0.639648 30.2044 0.639648H30.4365C32.9895 0.639648 35.0784 2.7285 35.0784 5.28155V5.97783C35.0784 8.53087 37.1672 10.6197 39.7203 10.6197C42.2733 10.6197 44.3622 8.53087 44.3622 5.97783V5.28155C44.3622 2.7285 46.451 0.639648 48.772 0.639648C51.325 0.639648 53.1818 2.7285 53.1818 5.28155V5.97783C53.1818 8.53087 55.2706 10.6197 57.8237 10.6197H59.6804C62.2335 10.6197 64.3223 8.53087 64.3223 5.97783V5.28155C64.3223 2.7285 66.4112 0.639648 68.9642 0.639648H71.5173C74.0703 0.639648 76.1592 2.7285 76.1592 5.28155V44.7377" stroke="#00004D" stroke-miterlimit="10" stroke-linecap="round"/>
<path d="M25.564 60.2877C27.2303 60.2877 28.5812 58.9369 28.5812 57.2706C28.5812 55.6042 27.2303 54.2534 25.564 54.2534C23.8977 54.2534 22.5469 55.6042 22.5469 57.2706C22.5469 58.9369 23.8977 60.2877 25.564 60.2877Z" fill="#EE6352" stroke="#EE6352"/>
<path d="M23.4794 51.7C24.633 51.7 25.5682 50.7649 25.5682 49.6112C25.5682 48.4576 24.633 47.5225 23.4794 47.5225C22.3258 47.5225 21.3906 48.4576 21.3906 49.6112C21.3906 50.7649 22.3258 51.7 23.4794 51.7Z" fill="#EE6352" stroke="#EE6352"/>
<path d="M71.0575 68.179C72.2112 68.179 73.1463 67.2439 73.1463 66.0903C73.1463 64.9367 72.2112 64.0015 71.0575 64.0015C69.9039 64.0015 68.9688 64.9367 68.9688 66.0903C68.9688 67.2439 69.9039 68.179 71.0575 68.179Z" fill="#EE6352" stroke="#EE6352"/>
<path d="M75.9303 63.5373C77.212 63.5373 78.2511 62.4982 78.2511 61.2164C78.2511 59.9346 77.212 58.8955 75.9303 58.8955C74.6485 58.8955 73.6094 59.9346 73.6094 61.2164C73.6094 62.4982 74.6485 63.5373 75.9303 63.5373Z" fill="#EE6352" stroke="#EE6352"/>
<path d="M72.2184 56.5744C73.1156 56.5744 73.843 55.8471 73.843 54.9498C73.843 54.0526 73.1156 53.3252 72.2184 53.3252C71.3211 53.3252 70.5938 54.0526 70.5938 54.9498C70.5938 55.8471 71.3211 56.5744 72.2184 56.5744Z" fill="#EE6352" stroke="#EE6352"/>
<path d="M29.7437 46.3619C31.41 46.3619 32.7608 45.0111 32.7608 43.3448C32.7608 41.6785 31.41 40.3276 29.7437 40.3276C28.0774 40.3276 26.7266 41.6785 26.7266 43.3448C26.7266 45.0111 28.0774 46.3619 29.7437 46.3619Z" fill="#EE6352" stroke="#EE6352"/>
<path d="M33.6855 19.2071H17.9036C16.9752 19.2071 16.0469 18.5108 16.0469 17.3504C16.0469 16.422 16.7431 15.4937 17.9036 15.4937H33.6855C34.6139 15.4937 35.5422 16.1899 35.5422 17.3504C35.3102 18.5108 34.6139 19.2071 33.6855 19.2071Z" fill="#00004D"/>
<path d="M83.3574 36.3822H67.5755C66.6471 36.3822 65.7188 35.6859 65.7188 34.7576C65.7188 33.8292 66.415 32.9009 67.5755 32.9009H83.3574C84.2858 32.9009 85.2141 33.5971 85.2141 34.7576C85.2141 35.4538 84.2858 36.3822 83.3574 36.3822Z" fill="#00004D"/>
<path d="M15.121 47.9866C16.6591 47.9866 17.906 46.7397 17.906 45.2016C17.906 43.6634 16.6591 42.4165 15.121 42.4165C13.5829 42.4165 12.3359 43.6634 12.3359 45.2016C12.3359 46.7397 13.5829 47.9866 15.121 47.9866Z" fill="#EE6352" stroke="#EE6352" stroke-miterlimit="10" stroke-linecap="round"/>
<path d="M33.9215 53.093C34.8187 53.093 35.5461 52.3656 35.5461 51.4684C35.5461 50.5711 34.8187 49.8438 33.9215 49.8438C33.0242 49.8438 32.2969 50.5711 32.2969 51.4684C32.2969 52.3656 33.0242 53.093 33.9215 53.093Z" fill="#EE6352" stroke="#EE6352" stroke-miterlimit="10" stroke-linecap="round"/>
<path d="M79.1793 54.9499C80.0766 54.9499 80.8039 54.2225 80.8039 53.3253C80.8039 52.4281 80.0766 51.7007 79.1793 51.7007C78.2821 51.7007 77.5547 52.4281 77.5547 53.3253C77.5547 54.2225 78.2821 54.9499 79.1793 54.9499Z" fill="#EE6352" stroke="#EE6352" stroke-miterlimit="10" stroke-linecap="round"/>
<path d="M32.297 18.7432V33.3651C42.9734 36.3824 50.6325 45.8983 50.6325 57.503C50.6325 71.4287 39.4919 82.5693 25.5662 82.5693C11.6406 82.5693 0.5 71.4287 0.5 57.503C0.5 45.8983 8.39123 36.3824 18.8355 33.3651V18.7432H32.297Z" stroke="#00004D"/>
<path d="M81.9655 34.5254V45.2018C81.9655 46.3622 82.4297 48.4511 82.8939 49.6116L96.3554 80.2481C96.8196 81.4085 96.1233 82.3369 94.9628 82.3369H55.5067C54.3462 82.3369 53.65 81.4085 54.1141 80.2481L67.5756 49.6116C68.0398 48.4511 68.504 46.5943 68.504 45.2018V34.5254H81.9655V34.5254Z" stroke="#00004D"/>
</svg>
