<svg width="97" height="99" viewBox="0 0 97 99" fill="none" xmlns="http://www.w3.org/2000/svg">
<path d="M72.6423 56.7335H66.8087C66.3225 53.8167 64.8641 50.8999 63.4057 48.4692L67.2948 44.5801C68.7532 43.1217 68.7532 40.691 67.2948 39.2326L64.8641 36.8019C63.4057 35.3435 60.975 35.3435 59.5166 36.8019L55.6275 40.691C53.1968 39.2326 50.28 37.7742 47.3632 37.2881V31.9406C47.3632 29.996 45.9048 28.5376 43.9603 28.5376H39.585C37.6405 28.5376 36.1821 29.996 36.1821 31.9406V37.7742C33.2652 38.2603 30.8346 39.7187 28.4039 41.1772L24.5148 36.8019C23.0564 35.3435 20.6257 35.3435 19.1673 36.8019L16.2505 39.7187C14.792 41.1772 14.792 43.6078 16.2505 45.0662L20.1395 48.9553C18.6811 51.386 17.2227 54.3028 16.7366 57.2197H10.903C8.9584 57.2197 7.5 58.6781 7.5 60.6226V64.9978C7.5 66.9424 8.9584 68.4008 10.903 68.4008H16.7366C17.2227 71.3176 18.6811 74.2344 20.1395 76.6651L16.2505 80.5542C14.792 82.0126 14.792 84.4433 16.2505 85.9017L19.1673 88.8185C20.6257 90.277 23.0564 90.277 24.5148 88.8185L28.4039 84.9295C30.8346 86.3879 33.7514 87.8463 36.6682 88.3324V94.166C36.6682 96.1106 38.1266 97.569 40.0712 97.569H44.4464C46.3909 97.569 47.8493 96.1106 47.8493 94.166V88.3324C50.7662 87.8463 53.683 86.3879 56.1137 84.9295L60.0028 88.8185C61.4612 90.277 63.8918 90.277 65.3503 88.8185L68.2671 85.9017C69.7255 84.4433 69.7255 82.0126 68.2671 80.5542L64.378 76.6651C65.8364 74.2344 67.2948 71.3176 67.7809 68.4008H73.6146C75.5591 68.4008 77.0175 66.9424 77.0175 64.9978V60.6226C76.5314 58.6781 74.5869 56.7335 72.6423 56.7335ZM42.0157 74.2344C35.6959 74.2344 30.3484 68.8869 30.3484 62.5672C30.3484 56.2474 35.6959 50.8999 42.0157 50.8999C48.3355 50.8999 53.683 56.2474 53.683 62.5672C53.1968 68.8869 48.3355 74.2344 42.0157 74.2344Z" fill="#FCFDF7"/>
<path d="M72.6423 56.7335H66.8087C66.3225 53.8167 64.8641 50.8999 63.4057 48.4692L67.2948 44.5801C68.7532 43.1217 68.7532 40.691 67.2948 39.2326L64.8641 36.8019C63.4057 35.3435 60.975 35.3435 59.5166 36.8019L55.6275 40.691C53.1968 39.2326 50.28 37.7742 47.3632 37.2881V31.9406C47.3632 29.996 45.9048 28.5376 43.9603 28.5376H39.585C37.6405 28.5376 36.1821 29.996 36.1821 31.9406V37.7742C33.2652 38.2603 30.8346 39.7187 28.4039 41.1772L24.5148 36.8019C23.0564 35.3435 20.6257 35.3435 19.1673 36.8019L16.2505 39.7187C14.792 41.1772 14.792 43.6078 16.2505 45.0662L20.1395 48.9553C18.6811 51.386 17.2227 54.3028 16.7366 57.2197H10.903C8.9584 57.2197 7.5 58.6781 7.5 60.6226V64.9978C7.5 66.9424 8.9584 68.4008 10.903 68.4008H16.7366C17.2227 71.3176 18.6811 74.2344 20.1395 76.6651L16.2505 80.5542C14.792 82.0126 14.792 84.4433 16.2505 85.9017L19.1673 88.8185C20.6257 90.277 23.0564 90.277 24.5148 88.8185L28.4039 84.9295C30.8346 86.3879 33.7514 87.8463 36.6682 88.3324V94.166C36.6682 96.1106 38.1266 97.569 40.0712 97.569H44.4464C46.3909 97.569 47.8493 96.1106 47.8493 94.166V88.3324C50.7662 87.8463 53.683 86.3879 56.1137 84.9295L60.0028 88.8185C61.4612 90.277 63.8918 90.277 65.3503 88.8185L68.2671 85.9017C69.7255 84.4433 69.7255 82.0126 68.2671 80.5542L64.378 76.6651C65.8364 74.2344 67.2948 71.3176 67.7809 68.4008H73.6146C75.5591 68.4008 77.0175 66.9424 77.0175 64.9978V60.6226C76.5314 58.6781 74.5869 56.7335 72.6423 56.7335ZM42.0157 74.2344C35.6959 74.2344 30.3484 68.8869 30.3484 62.5672C30.3484 56.2474 35.6959 50.8999 42.0157 50.8999C48.3355 50.8999 53.683 56.2474 53.683 62.5672C53.1968 68.8869 48.3355 74.2344 42.0157 74.2344Z" stroke="#00004D" stroke-miterlimit="10"/>
<path d="M30.3484 62.5672C30.3484 68.8869 35.6959 74.2344 42.0157 74.2344C48.3355 74.2344 53.1968 68.8869 53.683 62.5672C53.683 56.2474 48.3355 50.8999 42.0157 50.8999C35.6959 50.8999 30.3484 56.2474 30.3484 62.5672Z" stroke="#00004D" stroke-miterlimit="10"/>
<path d="M86.3581 22.1477H81.9828C81.6182 19.96 80.5243 17.7723 79.4305 15.9492L82.3474 13.0323C83.4412 11.9385 83.4412 10.1154 82.3474 9.02154L80.5243 7.19846C79.4305 6.10462 77.6074 6.10462 76.5136 7.19846L73.5967 10.1154C71.7736 9.02153 69.5859 7.92769 67.3983 7.56308V3.55231C67.3983 2.09385 66.3044 1 64.846 1H61.5644C60.106 1 59.0122 2.09385 59.0122 3.55231V7.92769C56.8245 8.29231 55.0014 9.38615 53.1784 10.48L50.2615 7.19846C49.1676 6.10462 47.3445 6.10462 46.2507 7.19846L44.063 9.38615C42.9692 10.48 42.9692 12.3031 44.063 13.3969L46.9799 16.3138C45.8861 18.1369 44.7923 20.3246 44.4276 22.5123H40.0523C38.5938 22.5123 37.5 23.6062 37.5 25.0646V28.3461C37.5 29.8046 38.5938 30.8984 40.0523 30.8984H44.4276C44.7923 33.0861 45.8861 35.2738 46.9799 37.0969L44.063 40.0138C42.9692 41.1077 42.9692 42.9307 44.063 44.0246L46.2507 46.2123C47.3445 47.3061 49.1676 47.3061 50.2615 46.2123L53.1784 43.2954C55.0014 44.3892 57.1891 45.4831 59.3768 45.8477V50.2231C59.3768 51.6815 60.4706 52.7754 61.9291 52.7754H65.2106C66.669 52.7754 67.7629 51.6815 67.7629 50.2231V45.8477C69.9506 45.4831 72.1382 44.3892 73.9613 43.2954L76.8782 46.2123C77.972 47.3061 79.7951 47.3061 80.8889 46.2123L83.0766 44.0246C84.1705 42.9307 84.1705 41.1077 83.0766 40.0138L80.1597 37.0969C81.2535 35.2738 82.3474 33.0861 82.712 30.8984H87.0874C88.5458 30.8984 89.6396 29.8046 89.6396 28.3461V25.0646C89.275 23.6062 87.8166 22.1477 86.3581 22.1477ZM63.3875 35.2738C58.6475 35.2738 54.6368 31.2631 54.6368 26.5231C54.6368 21.7831 58.6475 17.7723 63.3875 17.7723C68.1275 17.7723 72.1382 21.7831 72.1382 26.5231C71.7736 31.2631 68.1275 35.2738 63.3875 35.2738Z" fill="#EE6352" stroke="#00004D"/>
</svg>
