<svg width="400" height="302" viewBox="0 0 400 302" fill="none" xmlns="http://www.w3.org/2000/svg">
<g clip-path="url(#clip0_4033_10429)">
<path opacity="0.18" d="M358.402 230.374C355.811 241.232 352.081 251.982 345.489 260.986C335.46 274.682 319.779 283.043 304.058 289.457C291.098 294.739 277.479 299.058 263.48 299.291C244.471 299.609 226.028 292.396 207.011 291.9C184.52 291.318 162.75 300.144 140.313 301.416C116.647 302.672 93.2941 295.555 74.3508 281.314C70.0989 278.1 66.1268 274.533 62.4769 270.649C54.5087 262.302 48.3373 252.409 44.3442 241.581C42.3948 236.1 40.9666 230.447 40.0786 224.697C38.5895 215.499 38.194 206.084 38.0388 196.73C37.5502 167.119 40.0398 135.375 58.2656 112.031C64.664 103.841 72.7221 97.109 80.695 90.4469L124.724 53.6928C136.241 44.0758 147.812 34.4278 160.648 26.6566C174.841 18.0711 190.36 11.9208 205.918 6.16615C212.82 3.62229 219.831 1.11722 227.153 0.32614C243.191 -1.41113 258.997 5.26649 272.756 13.6891C285.661 21.5844 298.078 31.8296 303.391 46.0225C307.858 57.9041 306.811 71.112 309.448 83.5443C314.947 109.502 336.003 128.45 349.095 150.677C363.311 174.813 364.792 203.439 358.402 230.374Z" fill="#68E1FD"/>
<path d="M156.723 82.4196C155.857 82.4994 155.028 82.8069 154.32 83.3109C153.612 83.8149 153.049 84.4975 152.69 85.2892C151.998 86.8964 151.923 88.7026 152.481 90.3614C152.756 90.9861 152.889 91.6644 152.868 92.3468C152.727 92.9144 152.462 93.444 152.093 93.898C150.717 95.765 149.933 98.0021 149.844 100.32C149.844 102.646 151.17 105.012 153.334 105.787C151.953 108.688 151.915 112.411 153.939 114.908C155.963 117.405 160.252 117.956 162.392 115.56C162.974 116.637 163.871 117.512 164.963 118.065C166.055 118.619 167.291 118.825 168.504 118.656C169.717 118.488 170.849 117.952 171.749 117.121C172.648 116.29 173.273 115.204 173.537 114.008C175.569 115.148 178.33 114.195 179.664 112.287C180.28 111.295 180.663 110.178 180.787 109.018C180.91 107.858 180.771 106.684 180.378 105.586C179.578 103.393 178.393 101.36 176.88 99.5829C178.54 98.3264 180.277 96.9847 181.068 95.0613C181.859 93.1379 181.285 90.4777 179.346 89.7332C180.126 88.5524 180.549 87.1721 180.566 85.7572C180.582 84.3422 180.19 82.9525 179.438 81.7542C178.685 80.5559 177.604 79.5996 176.322 78.9997C175.041 78.3997 173.613 78.1815 172.211 78.3711C170.714 78.5418 169.597 79.4182 168.116 78.7744C166.968 78.2703 166.262 76.7502 165.309 75.9669C161.074 72.5234 154.117 77.0294 156.723 82.4196Z" fill="#68E1FD"/>
<path d="M268.326 164.645C267.49 184.059 259.189 202.4 245.156 215.842C231.124 229.283 212.442 236.787 193.01 236.787C173.579 236.787 154.897 229.283 140.865 215.842C126.832 202.4 118.531 184.059 117.695 164.645H268.326Z" fill="#68E1FD"/>
<path d="M237.52 164.645C237.52 164.645 226.445 223.813 214.579 225.961C202.713 228.11 237.52 230.545 255.04 203.85C270.28 180.637 268.326 164.645 268.326 164.645H237.52Z" fill="url(#paint0_linear_4033_10429)"/>
<path d="M138.53 165.056C138.53 165.056 144.649 220.951 181.077 226.512C217.505 232.073 227.518 227.629 227.518 227.629C227.518 227.629 205.027 249.872 174.399 241.527C143.772 233.182 126.718 200.476 126.718 200.476C126.718 200.476 116.853 173.13 117.682 164.645L138.53 165.056Z" fill="url(#paint1_linear_4033_10429)"/>
<path d="M163.528 170.33C163.683 170.113 163.908 169.733 164.179 169.392C164.908 168.407 165.645 168.445 166.11 169.609C166.886 171.493 167.786 173.401 167.22 175.519C166.964 176.149 166.636 176.748 166.242 177.302C165.056 179.443 162.302 180.924 163.45 184.034C163.502 184.18 163.521 184.335 163.508 184.489C163.494 184.642 163.448 184.792 163.373 184.926C162.396 186.361 163.024 187.439 163.892 188.68C165.102 190.409 165.955 192.395 167.196 194.109C168.972 196.529 169.996 199.538 172.68 201.236C173.982 202.058 175.402 202.733 176.627 203.648C177.282 204.155 177.736 204.878 177.907 205.688C178.202 207.829 178.202 210.008 178.426 212.164C178.605 213.894 179.016 215.615 179.202 217.345C179.378 218.322 179.357 219.324 179.14 220.292C178.639 221.705 178.625 223.245 179.101 224.666C179.52 225.938 179.877 227.233 180.257 228.544C181.389 232.104 186.663 234.749 190.409 233.624L186.423 231.615C187.144 230.84 187.702 230.274 188.33 229.614L186.678 228.622L188.23 227.691C188.059 226.954 187.888 226.194 187.687 225.263L190.013 225.636C190.099 225.007 190.176 224.472 190.269 223.821C191.751 223.673 193.24 223.549 194.923 223.394C194.752 222.402 194.589 221.479 194.419 220.556C196.947 221.277 198.483 220.672 200.15 218.524C200.895 217.697 201.693 216.92 202.539 216.197C203.632 215.103 204.865 214.095 204.865 212.319C204.865 212.048 205.509 211.683 205.913 211.505C207.921 210.667 209.666 209.132 212.117 209.333C212.482 209.333 213.032 208.821 213.257 208.403C214.413 206.177 215.53 203.912 216.608 201.647C216.775 201.21 216.815 200.734 216.724 200.275C216.569 199.127 216.313 197.995 217.872 197.568C218.104 197.498 218.26 197.103 218.446 196.854C219.384 195.528 220.291 194.171 221.284 192.891C222.06 191.914 222.246 189.153 221.478 188.238C221.323 188.06 221.013 187.842 220.858 187.881C219.244 188.331 218.353 187.191 217.399 186.33C217.032 185.97 216.579 185.71 216.084 185.575C215.589 185.439 215.067 185.432 214.568 185.554C213.746 185.71 212.815 185.19 211.954 185.283C210.186 185.461 209.201 184.275 207.96 183.383C206.998 182.7 205.734 182.095 204.648 183.515C203.097 182.545 201.926 181.374 201.74 179.528C201.704 178.412 201.298 177.34 200.586 176.479C199.874 175.619 198.897 175.019 197.808 174.774C196.831 174.524 195.815 174.458 194.814 174.58C194.341 174.688 193.847 174.655 193.392 174.486C192.937 174.316 192.542 174.017 192.255 173.626C191.293 172.401 190.448 170.974 188.656 170.648C188.369 170.648 187.997 170.09 187.935 169.741C187.889 169.322 187.715 168.927 187.438 168.609C187.161 168.292 186.793 168.067 186.384 167.965C185.961 167.832 185.528 167.736 185.089 167.678C184.574 167.604 184.052 167.604 183.537 167.678C182.526 167.826 181.494 167.765 180.507 167.498C179.519 167.232 178.597 166.765 177.798 166.127C175.27 164.188 171.074 165.196 169.267 167.825L169.189 167.934C168.809 168.476 168.414 169.027 167.995 169.609C167.476 169.152 166.918 168.742 166.328 168.383C165.506 167.972 164.691 167.608 163.761 168.422C163.477 168.548 163.167 168.601 162.859 168.577C162.55 168.552 162.252 168.451 161.992 168.283C161.853 168.166 163.016 164.785 162.9 164.668H157.734C157.804 164.893 160.061 168.399 160.131 168.546L163.528 170.33Z" fill="url(#paint2_linear_4033_10429)"/>
<path d="M241.81 222.696C240.376 225.721 237.933 228.125 235.443 230.359C229.554 235.814 223.098 240.625 216.186 244.707C212.043 247.125 207.684 249.15 203.164 250.756C182.697 257.938 160.151 255.169 138.916 250.756C128.268 248.546 117.262 245.94 106.637 248.243C99.657 249.756 93.3206 253.285 87.0929 256.775L62.4454 270.611C58.2371 266.163 54.5069 261.287 51.316 256.061C48.5092 251.481 46.1707 246.63 44.3359 241.581C42.3865 236.1 40.9583 230.447 40.0703 224.697C44.2429 222.72 51.0833 223.309 54.9379 222.58C63.3373 220.982 71.5583 218.516 79.756 216.057L102.511 209.217C106.792 207.93 111.042 206.642 115.223 204.99C119.054 203.439 122.769 201.616 126.732 200.476C133.053 198.654 139.73 198.685 146.3 198.716L178.959 198.91C179.583 198.856 180.211 198.974 180.773 199.251C182.239 200.166 181.549 202.454 180.471 203.796C175.957 209.473 168.209 211.326 161.012 212.056C158.879 212.273 156.677 212.443 154.769 213.405C152.861 214.367 151.279 216.368 151.535 218.493C151.899 221.704 155.715 223.084 158.879 223.728C168.145 225.574 177.482 226.988 186.893 227.97C192.143 228.505 197.464 228.885 202.683 228.102C216.488 226.039 227.998 216.127 241.624 213.118C243.509 215.887 243.245 219.679 241.81 222.696Z" fill="#FAAF90"/>
<path d="M192.777 169.849C234.304 169.849 267.968 167.703 267.968 165.056C267.968 162.409 234.304 160.263 192.777 160.263C151.25 160.263 117.586 162.409 117.586 165.056C117.586 167.703 151.25 169.849 192.777 169.849Z" fill="#3E3E54"/>
<path d="M170.792 153.88C174.817 153.007 178.904 152.455 183.015 152.228C188.599 151.817 194.261 151.554 199.752 152.655C203.379 153.501 206.945 154.591 210.424 155.92C225.116 161.012 240.336 164.43 255.794 166.111C226.695 167.104 197.58 166.111 168.512 164.692C164.531 164.49 160.552 164.281 156.576 164.063C153.536 163.901 148.293 164.575 145.672 163.241C147.394 160.488 153.862 159.821 156.755 158.728C161.393 156.99 165.953 155.036 170.792 153.88Z" fill="#3E3E54"/>
<path d="M174.749 155.051C174.749 155.051 172.872 112.504 163.891 97.4889L166.597 96.2402C166.597 96.2402 179.324 154.842 179.534 155.47C179.743 156.098 177.874 157.967 174.749 155.051Z" fill="#3E3E54"/>
<path d="M201.629 82.6678C200.792 82.4357 199.908 82.4297 199.067 82.6504C198.226 82.8711 197.459 83.3106 196.844 83.9243C195.631 85.1784 194.922 86.8345 194.851 88.5776C194.889 89.2618 194.772 89.9457 194.509 90.5786C194.179 91.0679 193.745 91.4784 193.237 91.7807C191.29 93.0421 189.764 94.8571 188.856 96.9925C188.08 99.1564 188.437 101.848 190.19 103.344C187.863 105.563 186.513 109.029 187.514 112.085C188.514 115.141 192.346 117.173 195.192 115.684C195.353 116.898 195.882 118.035 196.707 118.94C197.533 119.845 198.616 120.476 199.811 120.748C201.005 121.02 202.255 120.92 203.391 120.461C204.527 120.002 205.495 119.206 206.166 118.181C207.663 119.965 210.587 120.05 212.51 118.739C213.437 118.03 214.192 117.12 214.719 116.078C215.245 115.036 215.529 113.888 215.55 112.721C215.577 110.389 215.191 108.07 214.41 105.873C216.404 105.291 218.505 104.647 219.925 103.127C221.344 101.607 221.755 98.9237 220.196 97.5354C221.354 96.7104 222.248 95.5683 222.771 94.2466C223.294 92.925 223.423 91.4802 223.144 90.0867C222.864 88.6931 222.187 87.4101 221.195 86.3923C220.203 85.3746 218.938 84.6656 217.551 84.3508C216.093 83.9785 214.736 84.4051 213.581 83.2805C212.689 82.4041 212.572 80.7289 211.952 79.6586C209.206 74.9587 201.109 76.7037 201.629 82.6678Z" fill="#68E1FD"/>
<path d="M202.964 118.049C202.91 116.622 202.871 115.102 203.6 113.877C204.059 113.191 204.628 112.586 205.283 112.085C206.348 111.126 207.516 110.288 208.765 109.588C210.029 108.889 211.484 108.617 212.915 108.812C211.325 110.27 209.037 110.759 207.377 112.108C205.476 113.734 204.005 115.804 203.096 118.134C201.832 122.315 201.77 127.364 201.118 131.699C200.467 136.034 199.815 140.502 199.156 144.884C198.474 149.537 197.279 154.353 197.093 159.038C197.093 159.697 194.642 160.79 192.75 156.951C195.077 149.971 197 142.859 198.753 135.732C200.234 129.659 201.545 123.525 202.452 117.336C202.863 114.544 203.561 111.364 203.414 108.541C203.251 105.555 200.102 102.631 197.59 101.351C197.419 101.258 197.241 101.173 197.062 101.095C196.798 101.281 197 101.7 197.217 101.948C199.125 104.073 201.692 105.772 202.693 108.448C202.956 109.153 203.096 109.898 203.336 110.611C203.181 110.154 203.74 108.82 203.67 108.161C203.544 107.282 203.476 106.396 203.468 105.508C203.501 103.43 203.348 101.354 203.011 99.3036L205.989 99.0942C205.989 99.0942 204.732 107.47 203.181 117.964" fill="#3E3E54"/>
<path d="M235.27 88.3915C234.432 88.1586 233.548 88.1521 232.707 88.3729C231.867 88.5936 231.099 89.0336 230.484 89.6479C229.272 90.9021 228.562 92.5582 228.491 94.3013C228.526 94.9853 228.41 95.6685 228.15 96.3023C227.82 96.7916 227.385 97.202 226.878 97.5044C224.932 98.7637 223.406 100.576 222.496 102.708C221.721 104.88 222.07 107.571 223.83 109.068C221.503 111.286 220.154 114.753 221.154 117.809C222.155 120.864 225.986 122.896 228.833 121.407C228.994 122.622 229.522 123.758 230.348 124.664C231.174 125.569 232.257 126.2 233.451 126.472C234.646 126.743 235.895 126.643 237.031 126.184C238.168 125.726 239.136 124.93 239.807 123.905C241.304 125.688 244.228 125.774 246.151 124.463C247.075 123.751 247.829 122.841 248.355 121.799C248.881 120.758 249.167 119.611 249.191 118.445C249.215 116.112 248.827 113.794 248.043 111.596C250.044 111.015 252.138 110.371 253.565 108.851C254.992 107.331 255.388 104.647 253.837 103.259C254.994 102.434 255.888 101.292 256.411 99.9703C256.934 98.6486 257.064 97.2039 256.784 95.8103C256.505 94.4167 255.828 93.1337 254.836 92.116C253.844 91.0983 252.578 90.3893 251.192 90.0745C249.734 89.7022 248.377 90.1288 247.221 89.0042C246.322 88.1278 246.205 86.4526 245.593 85.3823C242.847 80.6902 234.75 82.4274 235.27 88.3915Z" fill="#68E1FD"/>
<path d="M236.605 123.773C236.551 122.346 236.512 120.826 237.233 119.6C237.695 118.915 238.266 118.31 238.924 117.809C239.988 116.85 241.156 116.012 242.406 115.312C243.669 114.613 245.125 114.341 246.555 114.536C244.965 115.994 242.678 116.483 241.018 117.832C239.117 119.46 237.644 121.529 236.729 123.858C235.473 128.039 235.41 133.087 234.759 137.423C234.108 141.758 233.448 146.226 232.797 150.607C232.114 155.261 230.92 160.077 230.726 164.762C230.726 165.421 228.283 166.514 226.391 162.675C228.717 155.695 230.641 148.583 232.386 141.456C233.875 135.383 235.186 129.248 236.093 123.059C236.496 120.267 237.202 117.088 237.047 114.264C236.892 111.279 233.735 108.355 231.23 107.075C231.06 106.982 230.881 106.897 230.703 106.819C230.439 107.005 230.633 107.424 230.858 107.672C232.766 109.797 235.333 111.496 236.333 114.171C236.597 114.877 236.737 115.622 236.977 116.335C236.822 115.878 237.38 114.544 237.303 113.884C237.184 113.005 237.117 112.119 237.101 111.232C237.141 109.154 236.988 107.077 236.644 105.028L239.63 104.818C239.63 104.818 238.373 113.194 236.806 123.688" fill="#3E3E54"/>
<path d="M212.762 121.283C212.295 121.153 211.801 121.15 211.332 121.274C210.863 121.398 210.436 121.645 210.094 121.989C209.414 122.691 209.016 123.618 208.977 124.595C208.996 124.977 208.93 125.358 208.783 125.712C208.6 125.985 208.359 126.216 208.078 126.386C206.989 127.09 206.136 128.103 205.627 129.295C205.391 129.897 205.339 130.556 205.477 131.188C205.615 131.82 205.937 132.397 206.402 132.847C205.729 133.444 205.233 134.216 204.971 135.076C204.708 135.937 204.688 136.854 204.913 137.725C205.472 139.431 207.604 140.572 209.194 139.742C209.287 140.419 209.584 141.052 210.046 141.557C210.508 142.061 211.113 142.412 211.78 142.563C212.447 142.713 213.145 142.657 213.779 142.401C214.413 142.145 214.954 141.702 215.329 141.13C215.786 141.595 216.393 141.883 217.043 141.941C217.692 141.999 218.341 141.824 218.873 141.448C219.389 141.051 219.81 140.543 220.104 139.962C220.398 139.38 220.558 138.741 220.572 138.09C220.585 136.785 220.37 135.489 219.936 134.258C221.09 134.028 222.161 133.493 223.038 132.707C223.814 131.862 224.054 130.381 223.193 129.605C223.832 129.14 224.324 128.502 224.61 127.766C224.897 127.031 224.966 126.228 224.81 125.454C224.654 124.68 224.28 123.967 223.73 123.399C223.181 122.832 222.481 122.434 221.712 122.253C220.898 122.043 220.161 122.253 219.494 121.655C218.99 121.167 218.928 120.228 218.579 119.631C216.997 116.979 212.483 117.956 212.762 121.283Z" fill="#68E1FD"/>
<path d="M213.513 141.053C213.409 140.259 213.532 139.452 213.87 138.726C214.122 138.34 214.44 138.002 214.808 137.725C215.401 137.186 216.054 136.718 216.755 136.329C217.463 135.936 218.279 135.784 219.081 135.895C218.197 136.671 216.925 136.981 215.979 137.733C214.918 138.643 214.096 139.799 213.583 141.099C212.885 143.426 212.846 146.257 212.481 148.676L211.388 156.052C211.008 158.642 210.341 161.349 210.232 163.963C210.232 164.335 208.867 164.94 207.812 162.799C209.092 158.922 210.186 154.927 211.163 150.941C211.993 147.552 212.714 144.124 213.226 140.665C213.562 139.049 213.741 137.405 213.761 135.755C213.676 134.088 211.915 132.452 210.511 131.738L210.217 131.591C210.069 131.699 210.217 131.932 210.302 132.071C211.372 133.258 212.807 134.204 213.366 135.701C213.513 136.097 213.59 136.477 213.722 136.911C213.637 136.655 213.947 135.911 213.908 135.546C213.838 135.053 213.799 134.555 213.792 134.057C213.816 132.893 213.73 131.73 213.536 130.582L215.204 130.466L213.653 141.006" fill="#3E3E54"/>
<path d="M254.134 121.95C253.669 121.741 253.158 121.659 252.651 121.713C252.144 121.766 251.66 121.952 251.249 122.253C250.436 122.877 249.883 123.781 249.698 124.789C249.655 125.186 249.529 125.569 249.326 125.913C249.093 126.173 248.804 126.374 248.48 126.503C247.24 127.064 246.195 127.982 245.479 129.14C245.136 129.724 244.974 130.397 245.013 131.073C245.052 131.749 245.289 132.399 245.696 132.94C244.901 133.453 244.263 134.176 243.853 135.029C243.442 135.881 243.275 136.83 243.369 137.772C243.687 139.633 245.696 141.146 247.503 140.533C247.49 141.251 247.698 141.955 248.097 142.552C248.496 143.149 249.068 143.61 249.737 143.872C250.405 144.135 251.138 144.186 251.836 144.021C252.535 143.855 253.166 143.48 253.646 142.945C254.048 143.497 254.634 143.889 255.299 144.051C255.963 144.213 256.663 144.134 257.275 143.829C257.881 143.501 258.404 143.04 258.807 142.481C259.21 141.923 259.481 141.281 259.602 140.603C259.818 139.252 259.797 137.874 259.54 136.531C260.764 136.476 261.951 136.093 262.976 135.422C263.937 134.646 264.403 133.149 263.627 132.211C264.364 131.83 264.977 131.246 265.391 130.527C265.805 129.808 266.004 128.985 265.964 128.157C265.924 127.328 265.647 126.528 265.165 125.853C264.683 125.177 264.018 124.655 263.247 124.347C262.472 124.006 261.611 124.137 261.044 123.377C260.595 122.788 260.68 121.826 260.416 121.136C259.199 118.142 254.367 118.445 254.134 121.95Z" fill="#68E1FD"/>
<path d="M251.799 142.572C251.819 141.744 252.072 140.938 252.528 140.246C252.855 139.886 253.24 139.585 253.668 139.354C254.367 138.892 255.117 138.509 255.901 138.214C256.695 137.919 257.563 137.889 258.375 138.128C257.328 138.834 255.971 138.904 254.878 139.555C253.631 140.324 252.595 141.39 251.861 142.658C250.759 144.984 250.309 147.885 249.534 150.344L247.207 157.828C246.432 160.457 245.284 163.156 244.764 165.855C244.694 166.235 243.213 166.63 242.438 164.304C244.384 160.426 246.145 156.509 247.781 152.523C249.177 149.134 250.472 145.698 251.543 142.185C252.145 140.559 252.59 138.878 252.869 137.167C253.039 135.429 251.473 133.452 250.131 132.513L249.844 132.319C249.674 132.405 249.751 132.668 249.844 132.831C250.767 134.227 252.101 135.437 252.45 137.081C252.535 137.508 252.551 137.958 252.628 138.392C252.582 138.113 253.024 137.384 253.039 136.996C253.044 136.477 253.083 135.959 253.156 135.445C253.357 134.241 253.451 133.021 253.435 131.8L255.18 131.939L251.892 142.634" fill="#3E3E54"/>
<path d="M130.446 121.95C129.908 121.998 129.392 122.186 128.948 122.494C128.505 122.803 128.15 123.223 127.918 123.711C127.475 124.706 127.414 125.83 127.747 126.867C127.915 127.262 127.995 127.688 127.98 128.116C127.889 128.473 127.722 128.806 127.492 129.093C126.623 130.248 126.118 131.636 126.041 133.08C126.016 133.802 126.207 134.516 126.588 135.13C126.969 135.745 127.523 136.232 128.182 136.531C127.702 137.414 127.477 138.414 127.532 139.417C127.587 140.421 127.919 141.39 128.492 142.216C129.733 143.767 132.37 144.162 133.758 142.681C134.108 143.367 134.661 143.928 135.342 144.288C136.023 144.647 136.798 144.788 137.562 144.69C138.326 144.593 139.041 144.262 139.609 143.743C140.178 143.223 140.572 142.541 140.738 141.789C141.394 142.102 142.14 142.171 142.842 141.983C143.545 141.796 144.157 141.364 144.569 140.765C144.959 140.15 145.206 139.455 145.292 138.732C145.378 138.008 145.3 137.275 145.066 136.585C144.581 135.214 143.856 133.941 142.925 132.824C144.039 132.144 144.951 131.18 145.57 130.032C146.074 128.837 145.733 127.178 144.531 126.704C145.023 125.974 145.295 125.116 145.314 124.235C145.333 123.354 145.099 122.486 144.639 121.735C144.179 120.983 143.513 120.379 142.719 119.995C141.926 119.611 141.039 119.464 140.164 119.569C139.234 119.662 138.528 120.205 137.613 119.786C136.899 119.468 136.473 118.515 135.875 118.018C133.231 115.816 128.864 118.569 130.446 121.95Z" fill="#68E1FD"/>
<path d="M138.81 142.379C138.391 141.586 138.211 140.689 138.29 139.796C138.41 139.297 138.615 138.822 138.895 138.392C139.31 137.6 139.815 136.858 140.4 136.182C140.988 135.504 141.78 135.033 142.657 134.84C142.036 136.027 140.819 136.802 140.121 137.943C139.356 139.302 138.938 140.828 138.903 142.386C139.058 145.101 140.105 148.071 140.656 150.747C141.206 153.423 141.772 156.176 142.339 158.898C142.928 161.76 143.262 164.847 144.153 167.631C144.285 168.019 143.099 169.182 141.168 167.336C141.02 162.761 140.64 158.177 140.136 153.632C139.702 149.754 139.159 145.877 138.36 142.069C138.089 140.245 137.648 138.45 137.042 136.709C136.312 135.003 133.838 133.964 132.093 133.747H131.729C131.613 133.91 131.822 134.111 132 134.212C133.551 135.042 135.444 135.492 136.599 136.841C136.902 137.198 137.15 137.617 137.437 137.974C137.251 137.741 137.29 136.833 137.111 136.469C136.849 135.967 136.618 135.449 136.421 134.918C135.996 133.691 135.461 132.505 134.823 131.373L136.522 130.598C136.522 130.598 137.584 135.771 138.911 142.231" fill="#3E3E54"/>
<path d="M171.573 109.844C172.348 108.51 173.504 107.354 174.093 105.904C174.607 104.372 174.81 102.753 174.69 101.142C174.954 102.61 175.055 104.103 174.993 105.594C175.581 105.41 176.204 105.369 176.811 105.474C177.418 105.58 177.991 105.828 178.483 106.199C176.932 106.338 175.319 106.501 174.054 107.401C172.503 108.51 171.836 110.503 171.619 112.395C171.402 114.288 171.526 116.227 171.107 118.096C171.107 116.7 170.409 115.366 170.254 114.032C170.099 112.698 170.882 110.984 171.573 109.844Z" fill="#3E3E54"/>
<path d="M163.072 102.933C162.731 102.22 162.46 101.382 161.754 101.018L164.321 105.935L160.296 107.215C159.947 107.323 159.52 107.602 159.66 107.936C160.769 108.037 161.839 107.548 162.941 107.393C164.166 107.25 165.405 107.506 166.472 108.124C167.54 108.741 168.38 109.687 168.866 110.821C168.765 110.573 169.099 109.65 169.099 109.324C169.133 108.851 169.042 108.378 168.835 107.951C168.486 107.447 167.656 107.23 167.144 106.912C165.437 105.999 164.025 104.619 163.072 102.933Z" fill="#3E3E54"/>
<path d="M151.048 124.634C150.512 124.683 149.998 124.873 149.56 125.185C149.121 125.497 148.773 125.92 148.551 126.41C148.119 127.407 148.074 128.53 148.426 129.558C148.594 129.947 148.674 130.368 148.659 130.792C148.575 131.148 148.414 131.482 148.186 131.769C147.335 132.929 146.852 134.318 146.798 135.755C146.782 136.471 146.98 137.175 147.365 137.779C147.75 138.382 148.306 138.857 148.962 139.144C148.497 140.03 148.286 141.026 148.352 142.024C148.417 143.021 148.757 143.982 149.334 144.798C150.582 146.349 153.25 146.683 154.569 145.194C154.929 145.862 155.486 146.404 156.163 146.747C156.84 147.09 157.606 147.218 158.358 147.113C159.11 147.008 159.812 146.676 160.37 146.161C160.928 145.646 161.315 144.973 161.479 144.232C162.137 144.534 162.88 144.592 163.576 144.396C164.272 144.199 164.876 143.762 165.279 143.162C165.659 142.547 165.895 141.856 165.971 141.137C166.048 140.419 165.963 139.693 165.722 139.013C165.223 137.653 164.488 136.393 163.55 135.29C164.647 134.602 165.544 133.636 166.148 132.49C166.637 131.296 166.28 129.652 165.078 129.186C165.56 128.454 165.822 127.599 165.832 126.723C165.842 125.846 165.599 124.985 165.133 124.243C164.667 123.501 163.997 122.908 163.204 122.536C162.41 122.164 161.526 122.028 160.657 122.144C159.726 122.253 159.036 122.796 158.121 122.4C157.407 122.09 156.973 121.144 156.376 120.655C153.747 118.507 149.435 121.291 151.048 124.634Z" fill="#68E1FD"/>
<path d="M162.224 169.648C162.224 169.648 161.061 143.278 155.5 133.972L157.183 133.196C157.183 133.196 165.063 169.516 165.179 169.88C165.295 170.245 164.163 171.431 162.224 169.648Z" fill="#3E3E54"/>
<path d="M160.252 141.626C160.828 140.854 161.346 140.04 161.803 139.191C162.119 138.24 162.243 137.235 162.167 136.236C162.33 137.147 162.393 138.073 162.354 138.997C162.718 138.884 163.104 138.859 163.48 138.924C163.856 138.988 164.212 139.141 164.517 139.369C163.55 139.381 162.602 139.648 161.772 140.145C161.321 140.531 160.954 141.006 160.694 141.539C160.434 142.073 160.286 142.654 160.259 143.247C160.219 144.431 160.115 145.611 159.949 146.784C159.822 145.934 159.646 145.093 159.422 144.263C159.425 143.32 159.714 142.401 160.252 141.626Z" fill="#3E3E54"/>
<path d="M154.987 137.345C154.77 136.903 154.607 136.376 154.165 136.159L155.716 139.207L153.227 139.982C153.01 140.052 152.738 140.23 152.831 140.432C153.519 140.397 154.201 140.285 154.863 140.099C155.623 140.007 156.393 140.165 157.056 140.548C157.719 140.931 158.239 141.519 158.539 142.224C158.477 142.068 158.679 141.495 158.679 141.293C158.703 140.999 158.647 140.704 158.516 140.44C158.299 140.13 157.787 139.998 157.469 139.796C156.43 139.226 155.571 138.377 154.987 137.345Z" fill="#3E3E54"/>
<path d="M223.761 52.0176C234.127 52.0176 242.53 43.6146 242.53 33.2489C242.53 22.8833 234.127 14.4802 223.761 14.4802C213.395 14.4802 204.992 22.8833 204.992 33.2489C204.992 43.6146 213.395 52.0176 223.761 52.0176Z" fill="#68E1FD"/>
<path d="M195.531 21.181C198.476 25.8997 199.945 31.3907 199.749 36.9498C199.553 42.5089 197.7 47.8826 194.43 52.382C198.982 52.6922 203.581 53.6461 207.521 55.9573C211.461 58.2685 214.672 62.0688 215.517 66.5593C219.032 61.727 224.266 58.4263 230.141 57.337C236.016 56.2477 242.085 57.4526 247.098 60.7038C246.323 54.1425 242.569 47.6277 244.415 41.2759C245.78 36.6225 249.844 33.2953 253.722 30.3094C250.243 27.8827 247.499 24.5455 245.79 20.6632C244.082 16.7809 243.474 12.5033 244.035 8.29882C240.235 11.4864 234.767 12.1766 229.958 10.99C225.933 9.96628 223.413 7.32161 219.876 5.59985C217.549 4.47528 218.146 4.55284 216.51 6.60033C215.354 8.03513 214.486 9.65606 213.26 11.0521C210.94 13.6955 208.196 15.9339 205.14 17.6754C204.233 18.1873 196.198 22.2125 195.531 21.181Z" fill="url(#paint3_linear_4033_10429)"/>
<path d="M216.663 240.557L216.182 244.707C212.04 247.125 207.68 249.15 203.16 250.756C182.693 257.938 160.148 255.169 138.913 250.756C128.264 248.546 117.259 245.94 106.634 248.243C99.6535 249.756 93.3171 253.284 87.0893 256.775L62.4419 270.611C58.2335 266.163 54.5033 261.287 51.3125 256.061C56.3537 253.455 88.9197 236.936 102.376 238.471C116.972 240.139 157.014 247.227 166.608 246.816C176.202 246.405 216.663 240.557 216.663 240.557Z" fill="url(#paint4_linear_4033_10429)"/>
</g>
<defs>
<linearGradient id="paint0_linear_4033_10429" x1="215.044" y1="184.476" x2="332.287" y2="237.052" gradientUnits="userSpaceOnUse">
<stop offset="0.02" stop-color="white" stop-opacity="0"/>
<stop offset="0.32" stop-color="white" stop-opacity="0.39"/>
<stop offset="0.68" stop-color="white" stop-opacity="0.68"/>
<stop offset="1" stop-color="white"/>
</linearGradient>
<linearGradient id="paint1_linear_4033_10429" x1="100.263" y1="249.608" x2="192.028" y2="182.033" gradientUnits="userSpaceOnUse">
<stop offset="0.01"/>
<stop offset="0.13" stop-opacity="0.69"/>
<stop offset="1" stop-opacity="0"/>
</linearGradient>
<linearGradient id="paint2_linear_4033_10429" x1="192.177" y1="101.623" x2="183.84" y2="359.397" gradientUnits="userSpaceOnUse">
<stop offset="0.01"/>
<stop offset="0.13" stop-opacity="0.69"/>
<stop offset="1" stop-opacity="0"/>
</linearGradient>
<linearGradient id="paint3_linear_4033_10429" x1="194.43" y1="35.7151" x2="253.714" y2="35.7151" gradientUnits="userSpaceOnUse">
<stop offset="0.02" stop-color="white" stop-opacity="0"/>
<stop offset="0.32" stop-color="white" stop-opacity="0.39"/>
<stop offset="0.68" stop-color="white" stop-opacity="0.68"/>
<stop offset="1" stop-color="white"/>
</linearGradient>
<linearGradient id="paint4_linear_4033_10429" x1="136.702" y1="341.187" x2="131.7" y2="169.756" gradientUnits="userSpaceOnUse">
<stop offset="0.01"/>
<stop offset="0.13" stop-opacity="0.69"/>
<stop offset="1" stop-opacity="0"/>
</linearGradient>
<clipPath id="clip0_4033_10429">
<rect width="400" height="301.478" fill="white" transform="translate(0 0.046875)"/>
</clipPath>
</defs>
</svg>
