<svg width="97" height="96" viewBox="0 0 97 96" fill="none" xmlns="http://www.w3.org/2000/svg">
<path d="M96.4969 28.7324V72.1388H90.8759V79.6334V93.6858C90.8759 94.3104 89.9391 94.9349 89.3145 94.3104L70.8903 72.4511H15.9297V28.7324H96.4969Z" fill="#EE6352" stroke="#00004D" stroke-miterlimit="10" stroke-linejoin="round"/>
<path d="M88.4964 55.6042C91.2559 55.6042 93.4928 53.3672 93.4928 50.6077C93.4928 47.8483 91.2559 45.6113 88.4964 45.6113C85.737 45.6113 83.5 47.8483 83.5 50.6077C83.5 53.3672 85.737 55.6042 88.4964 55.6042Z" fill="#FCFDF7"/>
<path d="M72.4964 55.6042C75.2559 55.6042 77.4928 53.3672 77.4928 50.6077C77.4928 47.8483 75.2559 45.6113 72.4964 45.6113C69.737 45.6113 67.5 47.8483 67.5 50.6077C67.5 53.3672 69.737 55.6042 72.4964 55.6042Z" fill="#FCFDF7"/>
<path d="M0.5 39.6618C0.5 17.8025 17.363 0.00272518 39.5346 0.627277C59.8325 0.939553 76.6953 17.4902 77.9444 37.7881C79.1935 60.272 61.0816 79.0085 38.91 79.0085C31.7277 79.0085 24.8576 76.8226 18.9244 73.3876L2.37378 91.1873C1.74923 91.8119 0.500128 91.4996 0.500128 90.5628L0.5 39.6618Z" fill="#FCFDF7" stroke="#00004D"/>
<path d="M23.7386 43.0968C26.498 43.0968 28.735 40.8599 28.735 38.1004C28.735 35.341 26.498 33.104 23.7386 33.104C20.9792 33.104 18.7422 35.341 18.7422 38.1004C18.7422 40.8599 20.9792 43.0968 23.7386 43.0968Z" fill="#EE6352"/>
<path d="M39.6683 43.0968C42.4277 43.0968 44.6647 40.8599 44.6647 38.1004C44.6647 35.341 42.4277 33.104 39.6683 33.104C36.9088 33.104 34.6719 35.341 34.6719 38.1004C34.6719 40.8599 36.9088 43.0968 39.6683 43.0968Z" fill="#EE6352"/>
<path d="M55.2777 43.0973C58.0371 43.0973 60.2741 40.8604 60.2741 38.1009C60.2741 35.3415 58.0371 33.1045 55.2777 33.1045C52.5182 33.1045 50.2812 35.3415 50.2812 38.1009C50.2812 40.8604 52.5182 43.0973 55.2777 43.0973Z" fill="#EE6352"/>
</svg>
