<svg width="400" height="303" viewBox="0 0 400 303" fill="none" xmlns="http://www.w3.org/2000/svg">
<g clip-path="url(#clip0_4033_10417)">
<path opacity="0.24" d="M345.575 290.895C339.831 307.358 299.521 296.714 287.602 295.908C276.414 295.152 265.219 294.59 254.019 294.221C223.284 293.19 192.484 293.575 161.788 295.374C154.51 295.792 147.236 296.295 139.964 296.882C125.478 298.035 110.804 299.515 96.477 297.379C95.3432 297.21 94.2 297.023 93.0569 296.798C80.0041 294.296 67.1107 287.952 59.0804 277.617C57.6107 275.73 56.3155 273.713 55.2105 271.592C47.5644 256.834 50.1412 239.021 46.5524 222.801C43.3478 208.315 35.3081 195.403 30.37 181.404C25.8189 168.522 23.9434 154.848 24.8583 141.217C25.7732 127.586 29.4593 114.285 35.6911 102.128C41.9229 89.9703 50.5694 79.2119 61.1016 70.5108C71.6339 61.8096 83.8305 55.3485 96.9455 51.5228C121.533 44.3358 148.191 46.7158 172.657 39.1728C198.481 31.1894 219.986 12.7394 245.586 4.03443C268.16 -3.54863 292.649 -3.18827 314.991 5.05579C341.031 14.754 364.587 41.7496 356.267 68.2674C352.818 79.2305 344.338 88.5727 343.214 100.014C341.031 122.334 366.789 138.132 370.294 160.283C374.248 185.292 349.82 204.229 334.565 224.441C330.358 229.998 326.657 236.229 325.551 243.107C322.637 261.313 349.867 278.62 345.575 290.895Z" fill="#68E1FD"/>
<path d="M205.4 115.982C205.4 115.982 214.873 118.437 213.833 121.07C212.793 123.703 208.436 126.393 202.383 129.504L202.598 132.511C202.598 132.511 218.593 127.667 220.486 121.136C221.027 119.228 221.12 117.221 220.76 115.271C220.399 113.321 219.593 111.48 218.406 109.892L205.4 115.982Z" fill="#68E1FD"/>
<path d="M205.4 115.982C205.4 115.982 214.873 118.437 213.833 121.07C212.793 123.703 208.436 126.393 202.383 129.504L202.598 132.511C202.598 132.511 218.593 127.667 220.486 121.136C221.027 119.228 221.12 117.221 220.76 115.271C220.399 113.321 219.593 111.48 218.406 109.892L205.4 115.982Z" fill="url(#paint0_linear_4033_10417)"/>
<path d="M202.931 105.919C202.931 105.919 196.465 109.742 195.434 110.604C194.404 111.466 194.422 114.277 196.868 117.238C200.551 121.679 203.596 120.546 203.596 120.546L209.827 114.08L202.931 105.919Z" fill="#68E1FD"/>
<path d="M202.931 105.919C202.931 105.919 196.465 109.742 195.434 110.604C194.404 111.466 194.422 114.277 196.868 117.238C200.551 121.679 203.596 120.546 203.596 120.546L209.827 114.08L202.931 105.919Z" fill="url(#paint1_linear_4033_10417)"/>
<path d="M197.805 109.985C203.68 100.119 211.5 91.5493 220.79 84.798C236.457 73.282 259.601 64.7457 267.322 67.182C275.044 69.6183 265.252 87.9371 233.121 105.497C232.437 105.862 227.827 108.402 227.115 108.711L204.767 118.081C204.767 118.081 200.569 117.875 197.805 109.985Z" fill="#68E1FD"/>
<path d="M197.805 109.985C203.68 100.119 211.5 91.5493 220.79 84.798C236.457 73.282 259.601 64.7457 267.322 67.182C275.044 69.6183 265.252 87.9371 233.121 105.497C232.437 105.862 227.827 108.402 227.115 108.711L204.767 118.081C204.767 118.081 200.569 117.875 197.805 109.985Z" fill="url(#paint2_linear_4033_10417)"/>
<path d="M210.828 93.3907C210.828 93.3907 203.885 86.5035 196.098 89.9143C188.312 93.3251 177.133 109.957 177.133 109.957L180.993 110.173C180.993 110.173 193.877 97.9352 196.201 98.9285C198.525 99.9217 198.712 108.364 198.712 108.364C198.712 108.364 204.1 107.671 207.933 101.383C211.765 95.096 210.828 93.3907 210.828 93.3907Z" fill="#68E1FD"/>
<path d="M210.828 93.3907C210.828 93.3907 203.885 86.5035 196.098 89.9143C188.312 93.3251 177.133 109.957 177.133 109.957L180.993 110.173C180.993 110.173 193.877 97.9352 196.201 98.9285C198.525 99.9217 198.712 108.364 198.712 108.364C198.712 108.364 204.1 107.671 207.933 101.383C211.765 95.096 210.828 93.3907 210.828 93.3907Z" fill="url(#paint3_linear_4033_10417)"/>
<path d="M252.618 296.228C221.884 295.197 191.084 295.581 160.387 297.381C153.109 297.799 145.835 298.302 138.564 298.889C124.077 300.042 109.403 301.522 95.0763 299.386C93.9425 299.217 92.7993 299.03 91.6561 298.805C78.6034 296.303 65.71 289.959 57.6797 279.624C61.5777 235.528 86.7743 207.061 97.5969 192.828C115.775 168.952 189.06 112.553 196.537 110.426C203.949 108.336 202.112 111.363 202.112 111.363L203.584 120.546C202.122 121.548 87.0179 201.064 140.616 250.707C168.811 276.822 213.029 289.819 252.618 296.228Z" fill="url(#paint4_linear_4033_10417)"/>
<path d="M104.119 227.694C89.9414 262.514 118.755 282.932 160.387 297.39C153.109 297.808 145.835 298.311 138.564 298.899C124.077 300.051 109.403 301.532 95.0763 299.395C87.2053 281.788 83.832 265.662 84.2911 254.249C86.6618 191.403 194.86 111.672 196.537 110.435L203.584 120.527C202.356 120.939 138.404 143.428 104.119 227.694Z" fill="url(#paint5_linear_4033_10417)"/>
<path d="M251.416 87.7685C254.278 87.7685 256.598 85.4486 256.598 82.5868C256.598 79.725 254.278 77.405 251.416 77.405C248.554 77.405 246.234 79.725 246.234 82.5868C246.234 85.4486 248.554 87.7685 251.416 87.7685Z" fill="url(#paint6_linear_4033_10417)"/>
<path d="M251.423 86.9157C253.814 86.9157 255.752 84.9775 255.752 82.5866C255.752 80.1957 253.814 78.2576 251.423 78.2576C249.032 78.2576 247.094 80.1957 247.094 82.5866C247.094 84.9775 249.032 86.9157 251.423 86.9157Z" fill="url(#paint7_linear_4033_10417)"/>
<path d="M290.135 154.082C280.765 149.725 269.876 148.328 260 151.271C250.124 154.213 241.522 161.878 238.374 171.698C237.502 174.415 237.006 177.32 235.328 179.662C233.164 182.642 229.472 184.029 226.595 186.343C217.637 193.549 219.202 208.963 227.767 216.637C236.331 224.312 249.243 225.277 260.356 222.334C272.004 235.406 291.531 240.831 308.257 235.64C311.518 240.578 318.658 241.647 324.233 239.651C329.809 237.655 334.184 233.335 338.364 229.137L351.116 216.347C358.247 209.197 365.453 201.935 370.503 193.193C375.554 184.451 378.253 173.89 375.676 164.145C374.471 159.597 372.18 155.409 368.998 151.942C365.817 148.476 361.841 145.833 357.413 144.243C352.984 142.653 348.236 142.163 343.576 142.814C338.916 143.465 334.484 145.238 330.661 147.982C329.031 137.534 320.354 136.053 310.412 138.124C307.938 138.63 286.199 152.245 290.135 154.082Z" fill="url(#paint8_linear_4033_10417)"/>
<path d="M84.6789 101.383C89.4671 98.7503 94.9862 96.8669 100.365 97.9632C105.743 99.0595 110.55 103.951 110.016 109.395C112.391 109.145 114.78 109.717 116.784 111.015C118.789 112.312 120.289 114.257 121.034 116.526C121.779 118.795 121.724 121.251 120.878 123.484C120.033 125.717 118.448 127.594 116.388 128.801C122.104 133.083 121.879 142.491 117.175 147.86C112.471 153.229 104.731 155.028 97.6098 154.503C90.4885 153.978 83.6951 151.458 76.8267 149.509C74.9902 148.84 73.0167 148.638 71.0827 148.918C68.9838 149.406 67.3346 150.942 65.6105 152.264C61.7352 155.239 57.265 157.345 52.5035 158.44C47.742 159.534 42.8007 159.592 38.0152 158.607C34.9164 158.064 32.0111 156.727 29.582 154.728C26.3118 151.795 24.8219 147.326 24.3253 142.959C22.9853 131.199 29.0104 118.268 40.0579 113.911C40.0579 113.911 41.5384 107.774 41.9319 107.062C43.1646 104.72 44.8834 102.669 46.9731 101.046C50.7212 98.1318 55.5844 96.5951 60.0352 95.1521C68.6746 92.3223 82.2052 88.3587 84.6789 101.383Z" fill="url(#paint9_linear_4033_10417)"/>
</g>
<defs>
<linearGradient id="paint0_linear_4033_10417" x1="215.536" y1="125.969" x2="201.336" y2="108.256" gradientUnits="userSpaceOnUse">
<stop stop-opacity="0"/>
<stop offset="0.95"/>
</linearGradient>
<linearGradient id="paint1_linear_4033_10417" x1="196.147" y1="114.521" x2="210.646" y2="112.178" gradientUnits="userSpaceOnUse">
<stop stop-opacity="0"/>
<stop offset="0.95"/>
</linearGradient>
<linearGradient id="paint2_linear_4033_10417" x1="239.686" y1="96.1471" x2="221.01" y2="73.5312" gradientUnits="userSpaceOnUse">
<stop offset="0.02" stop-color="white" stop-opacity="0"/>
<stop offset="0.32" stop-color="white" stop-opacity="0.39"/>
<stop offset="0.68" stop-color="white" stop-opacity="0.68"/>
<stop offset="1" stop-color="white"/>
</linearGradient>
<linearGradient id="paint3_linear_4033_10417" x1="202.412" y1="82.3243" x2="188.058" y2="121.672" gradientUnits="userSpaceOnUse">
<stop offset="0.02" stop-color="white" stop-opacity="0"/>
<stop offset="0.32" stop-color="white" stop-opacity="0.39"/>
<stop offset="0.68" stop-color="white" stop-opacity="0.68"/>
<stop offset="1" stop-color="white"/>
</linearGradient>
<linearGradient id="paint4_linear_4033_10417" x1="57.6797" y1="205.084" x2="252.618" y2="205.084" gradientUnits="userSpaceOnUse">
<stop offset="0.02" stop-color="white" stop-opacity="0"/>
<stop offset="0.32" stop-color="white" stop-opacity="0.39"/>
<stop offset="0.68" stop-color="white" stop-opacity="0.68"/>
<stop offset="1" stop-color="white"/>
</linearGradient>
<linearGradient id="paint5_linear_4033_10417" x1="173.121" y1="250.558" x2="93.5489" y2="114.727" gradientUnits="userSpaceOnUse">
<stop offset="0.02" stop-color="white" stop-opacity="0"/>
<stop offset="0.32" stop-color="white" stop-opacity="0.39"/>
<stop offset="0.68" stop-color="white" stop-opacity="0.68"/>
<stop offset="1" stop-color="white"/>
</linearGradient>
<linearGradient id="paint6_linear_4033_10417" x1="255.671" y1="94.0198" x2="248.989" y2="68.6945" gradientUnits="userSpaceOnUse">
<stop offset="0.02" stop-color="white" stop-opacity="0"/>
<stop offset="0.32" stop-color="white" stop-opacity="0.39"/>
<stop offset="0.68" stop-color="white" stop-opacity="0.68"/>
<stop offset="1" stop-color="white"/>
</linearGradient>
<linearGradient id="paint7_linear_4033_10417" x1="255.17" y1="92.1123" x2="249.589" y2="70.9496" gradientUnits="userSpaceOnUse">
<stop offset="0.02" stop-color="white" stop-opacity="0"/>
<stop offset="0.32" stop-color="white" stop-opacity="0.39"/>
<stop offset="0.68" stop-color="white" stop-opacity="0.68"/>
<stop offset="1" stop-color="white"/>
</linearGradient>
<linearGradient id="paint8_linear_4033_10417" x1="312.492" y1="209.647" x2="268.612" y2="131.94" gradientUnits="userSpaceOnUse">
<stop offset="0.02" stop-color="white" stop-opacity="0"/>
<stop offset="0.32" stop-color="white" stop-opacity="0.39"/>
<stop offset="0.68" stop-color="white" stop-opacity="0.68"/>
<stop offset="1" stop-color="white"/>
</linearGradient>
<linearGradient id="paint9_linear_4033_10417" x1="63.8302" y1="143.296" x2="111.412" y2="93.7372" gradientUnits="userSpaceOnUse">
<stop offset="0.02" stop-color="white" stop-opacity="0"/>
<stop offset="0.32" stop-color="white" stop-opacity="0.39"/>
<stop offset="0.66" stop-color="white" stop-opacity="0.68"/>
<stop offset="1" stop-color="white"/>
</linearGradient>
<clipPath id="clip0_4033_10417">
<rect width="400" height="301.478" fill="white" transform="translate(0 0.569092)"/>
</clipPath>
</defs>
</svg>
