<svg width="824" height="622" viewBox="0 0 824 622" fill="none" xmlns="http://www.w3.org/2000/svg">
<g clip-path="url(#clip0_3963_9514)">
<path opacity="0.18" d="M317.169 19.8565C229.941 51.8931 156.627 119.667 130.13 199.938C122.518 223.03 118.436 246.84 109.618 269.721C99.8066 295.096 84.243 318.801 73.4795 343.944C40.8509 419.542 57.2181 505.903 108.942 566.91C147.914 612.861 205.538 631.216 271.26 615.546C303.635 607.849 331.506 590.594 362.887 581.564C406.174 569.109 455.085 570.293 499.302 569.152C548.699 567.862 652.21 550.12 701.777 545.891C777.777 539.378 774.139 381.669 757.476 341.914C740.813 302.159 714.845 266.401 696.152 227.449C674.541 182.45 662.424 132.989 632.206 92.4093C585.938 30.2605 499.302 -3.57353 412.835 0.296234C380.13 1.86111 347.863 8.4587 317.169 19.8565Z" fill="#68E1FD"/>
<path d="M409.284 558.684C583.368 558.684 724.49 544.426 724.49 526.838C724.49 509.25 583.368 494.992 409.284 494.992C235.201 494.992 94.0781 509.25 94.0781 526.838C94.0781 544.426 235.201 558.684 409.284 558.684Z" fill="url(#paint0_linear_3963_9514)"/>
<path d="M495.159 413.388H375.725L354.008 320.895H473.442L495.159 413.388Z" fill="#68E1FD"/>
<path d="M488.096 413.388H375.725L354.008 320.895H466.379L488.096 413.388Z" fill="url(#paint1_linear_3963_9514)"/>
<path d="M653.373 410.026H227.445V523.497H653.373V410.026Z" fill="#68E1FD"/>
<path d="M653.373 410.026H227.445V523.497H653.373V410.026Z" fill="url(#paint2_linear_3963_9514)"/>
<path d="M583.124 81.2861H235.459C214.939 81.2861 198.305 97.9205 198.305 118.44V312.859C198.305 333.378 214.939 350.013 235.459 350.013H583.124C603.644 350.013 620.278 333.378 620.278 312.859V118.44C620.278 97.9205 603.644 81.2861 583.124 81.2861Z" fill="#68E1FD"/>
<path d="M620.284 296.703V312.838C620.273 322.688 616.354 332.132 609.389 339.097C602.424 346.062 592.98 349.98 583.13 349.992H235.443C225.589 349.992 216.139 346.077 209.171 339.11C202.203 332.142 198.289 322.692 198.289 312.838V296.703H620.284Z" fill="url(#paint3_linear_3963_9514)"/>
<path opacity="0.1" d="M570.815 263.461V368.05H480.288C477.781 368.05 475.377 367.054 473.604 365.282C471.832 363.509 470.836 361.105 470.836 358.598V272.913C470.836 270.406 471.832 268.002 473.604 266.229C475.377 264.457 477.781 263.461 480.288 263.461H570.815Z" fill="#020202"/>
<path d="M336.516 352.381H403.993C404.571 352.381 405.143 352.495 405.677 352.716C406.21 352.937 406.695 353.261 407.103 353.67C407.512 354.078 407.836 354.563 408.057 355.097C408.278 355.63 408.392 356.202 408.392 356.78C408.392 357.357 408.278 357.929 408.057 358.463C407.836 358.997 407.512 359.481 407.103 359.89C406.695 360.298 406.21 360.622 405.677 360.843C405.143 361.064 404.571 361.178 403.993 361.178H336.516C335.938 361.178 335.366 361.064 334.832 360.843C334.299 360.622 333.814 360.298 333.405 359.89C332.997 359.481 332.673 358.997 332.452 358.463C332.231 357.929 332.117 357.357 332.117 356.78C332.117 355.613 332.581 354.494 333.405 353.67C334.23 352.845 335.349 352.381 336.516 352.381Z" fill="#473F47"/>
<path d="M347.431 328.845L345.422 342.104L350.983 342.738L357.052 328.718L347.431 328.845Z" fill="#FCBDBA"/>
<path d="M352.657 340.793C352.387 340.576 352.152 340.32 351.959 340.032C351.675 340.209 351.355 340.322 351.023 340.362C350.69 340.403 350.353 340.369 350.035 340.264L347.243 339.799C346.753 339.74 346.275 339.605 345.827 339.397H345.636L345.044 340.539C344.032 342.579 343.435 344.801 343.289 347.074C348.571 348.325 354 348.845 359.424 348.617C359.858 348.677 360.3 348.62 360.705 348.453C361.11 348.286 361.463 348.014 361.729 347.666C361.833 347.429 361.887 347.173 361.887 346.915C361.887 346.656 361.833 346.401 361.729 346.164C361.473 345.628 361.113 345.149 360.67 344.753C360.227 344.357 359.71 344.053 359.149 343.859C357.711 343.267 356.252 342.76 354.92 342.083C354.11 341.758 353.349 341.324 352.657 340.793Z" fill="#68E1FD"/>
<path d="M384.734 332.885L383 346.186L388.583 346.693L394.356 332.567L384.734 332.885Z" fill="#FCBDBA"/>
<path opacity="0.1" d="M574.354 147.58V188.624C574.354 194.02 572.21 199.194 568.395 203.009C564.58 206.824 559.406 208.967 554.011 208.967H434.894L386.617 264.497V127.237H554.011C556.682 127.237 559.328 127.763 561.796 128.785C564.264 129.808 566.506 131.306 568.395 133.195C570.284 135.084 571.783 137.327 572.805 139.795C573.827 142.263 574.354 144.908 574.354 147.58Z" fill="#020202"/>
<path d="M549.099 109.77H414.397C403.162 109.77 394.055 118.878 394.055 130.113V171.158C394.055 182.393 403.162 191.5 414.397 191.5H549.099C560.334 191.5 569.442 182.393 569.442 171.158V130.113C569.442 118.878 560.334 109.77 549.099 109.77Z" fill="white"/>
<path opacity="0.1" d="M417.702 181.372C417.018 181.432 416.33 181.331 415.693 181.075C414.663 180.358 413.957 179.264 413.727 178.03C410.407 167.774 403.534 157.793 393.215 154.77C390.529 165.702 390.719 177.121 390.931 188.392C390.931 191.395 391.269 194.842 393.68 196.618C395.251 197.588 397.08 198.059 398.924 197.971C410.626 198.416 422.254 195.938 432.758 190.76C435.909 189.196 442.401 183.084 436.353 181.097C434.534 180.483 430.517 181.414 428.571 181.414L417.702 181.372Z" fill="#020202"/>
<path d="M346.945 236.563L355.235 282.641L346.945 332.208L360.373 333.244L379.933 277.418L373.315 233.18L346.945 236.563Z" fill="#473F47"/>
<path d="M393.299 233.18L408.207 294.525L396.154 336.754L384.206 336.141L385.876 300.108L364.836 241.85L393.299 233.18Z" fill="#473F47"/>
<path d="M434.337 182.302C436.13 181.254 438.049 180.437 440.047 179.87C440.36 179.73 440.703 179.668 441.046 179.69C441.388 179.713 441.72 179.818 442.013 179.997C442.324 180.288 442.525 180.676 442.584 181.097C442.894 182.451 442.783 183.867 442.267 185.157C444.519 186.405 446.884 187.438 449.33 188.244C449.84 188.331 450.327 188.523 450.76 188.806C451.193 189.09 451.563 189.46 451.846 189.893C451.998 190.346 452.01 190.834 451.882 191.294C451.754 191.753 451.491 192.164 451.127 192.473C450.388 193.086 449.496 193.488 448.547 193.636C442.415 195.074 432.434 193.636 430.975 186.299C430.658 184.691 431.25 184.417 432.519 183.507C433.195 183.063 433.808 182.683 434.337 182.302Z" fill="#FCBDBA"/>
<path d="M388.264 125.693C389.658 128.491 390.553 131.511 390.908 134.617C391.071 136.167 390.828 137.734 390.201 139.162C389.574 140.589 388.586 141.829 387.334 142.758C386.571 143.111 385.859 143.566 385.219 144.112C382.978 146.416 385.536 150.582 384.246 153.564C383.749 154.545 382.903 155.306 381.875 155.697C380.846 156.088 379.709 156.082 378.685 155.679C377.661 155.231 376.75 154.56 376.018 153.714C375.286 152.869 374.753 151.871 374.456 150.794C373.885 148.628 373.629 146.392 373.695 144.154L373.462 130.832C373.165 127.867 373.631 124.875 374.815 122.141C375.622 120.748 376.796 119.605 378.21 118.836C379.624 118.068 381.222 117.704 382.83 117.784C386.192 118.207 387.144 123.071 388.264 125.693Z" fill="#FCBDBA"/>
<path d="M434.745 192.219C434.745 192.219 409.2 215.036 407.36 215.036C405.52 215.036 394.165 200.699 394.165 200.699L393.298 233.264C390.144 235.125 386.858 236.75 383.465 238.128C377.624 240.794 371.253 242.096 364.835 241.934C352.422 240.814 346.945 236.648 346.945 236.648L354.6 160.162C354.6 160.162 369.064 149.758 374.013 151.344C377.551 151.978 381.174 151.978 384.713 151.344C391.86 150.392 399.155 160.162 399.155 160.162L408.65 191.352L430.917 183.444C432.367 184.349 433.509 185.671 434.192 187.238C434.875 188.804 435.068 190.541 434.745 192.219Z" fill="white"/>
<path d="M391.08 111.335C391.244 109.655 390.85 107.968 389.959 106.535C388.246 104.145 384.736 103.934 381.86 104.568C379.883 105.111 377.969 105.862 376.15 106.81C374.813 107.361 373.355 107.55 371.921 107.36C368.125 107.292 364.445 108.668 361.623 111.208C357.732 114.888 356.823 120.322 356.421 125.419C355.998 131.191 358.536 135.992 362.363 140.39C365.598 144.218 371.498 147.982 375.706 143.139C377.583 140.678 378.439 137.588 378.096 134.511C377.088 134.408 376.138 133.992 375.379 133.32C374.62 132.649 374.091 131.756 373.867 130.769C373.722 130.148 373.751 129.499 373.953 128.894C374.155 128.289 374.52 127.752 375.009 127.343C375.308 127.162 375.641 127.042 375.987 126.99C376.333 126.938 376.686 126.955 377.026 127.039C377.366 127.124 377.686 127.274 377.967 127.483C378.249 127.691 378.486 127.952 378.667 128.252C378.788 128.442 378.881 128.649 378.942 128.865C379.552 127.639 379.999 126.338 380.274 124.996C380.76 123.706 382.389 122.585 383.446 123.452C384.059 123.938 384.419 125.017 385.201 124.848C385.461 124.75 385.688 124.582 385.857 124.361C387.396 122.88 388.695 121.168 389.705 119.286C390.652 117.066 391.148 114.679 391.164 112.266C391.084 111.962 391.055 111.648 391.08 111.335Z" fill="#FC682D"/>
<path d="M340.873 108.501C338.184 108.182 335.461 108.692 333.069 109.961C330.677 111.231 328.73 113.2 327.487 115.607C324.548 121.633 326.663 128.759 327.149 135.463C327.591 137.79 327.229 140.198 326.122 142.292C325.016 144.386 323.23 146.041 321.059 146.988C316.322 149.842 310.867 151.767 307.081 155.806C304.101 159.126 302.341 163.362 302.091 167.817C301.854 169.674 302.178 171.559 303.021 173.23C303.848 174.466 304.93 175.512 306.193 176.296C309.697 178.829 313.672 180.637 317.884 181.614C322.097 182.591 326.461 182.717 330.723 181.985C334.973 181.179 338.906 179.18 342.063 176.222C345.219 173.263 347.469 169.468 348.549 165.279C350.41 156.355 345.885 147.495 344.172 138.529C343.859 137.479 343.759 136.376 343.879 135.286C343.999 134.197 344.336 133.142 344.87 132.185C346.286 130.282 348.909 129.838 350.96 128.633C362.062 122.098 349.014 109.601 340.873 108.501Z" fill="#FC682D"/>
<path d="M356.695 117.129H356.505C354.181 117.129 352.297 119.013 352.297 121.337V121.527C352.297 123.851 354.181 125.735 356.505 125.735H356.695C359.019 125.735 360.903 123.851 360.903 121.527V121.337C360.903 119.013 359.019 117.129 356.695 117.129Z" fill="#68E1FD"/>
<path d="M390.189 344.726C389.923 344.504 389.689 344.248 389.491 343.965C389.211 344.152 388.894 344.275 388.561 344.326C388.229 344.377 387.889 344.355 387.566 344.261L384.775 343.838C384.279 343.784 383.795 343.656 383.337 343.458H383.147L382.576 344.621C381.622 346.689 381.076 348.922 380.969 351.197C386.275 352.323 391.709 352.735 397.124 352.424C397.561 352.477 398.005 352.411 398.407 352.232C398.809 352.053 399.155 351.769 399.408 351.408C399.513 351.172 399.566 350.916 399.566 350.658C399.566 350.399 399.513 350.144 399.408 349.907C399.146 349.375 398.778 348.902 398.327 348.517C397.877 348.132 397.352 347.842 396.786 347.666C395.327 347.095 393.847 346.629 392.43 345.953C391.63 345.649 390.875 345.237 390.189 344.726Z" fill="#68E1FD"/>
<path d="M391.373 361.178H382.809L375.979 379.66H340.686L347.516 361.178H338.952L278.875 523.497H287.439L293.381 507.447H328.611L322.669 523.497H331.233L337.175 507.447H337.429V506.77L390.866 362.426V523.497H399.43V361.178H391.373ZM373.653 385.962L364.75 410.026H329.436L338.338 385.962H373.653ZM318.186 440.498L327.088 416.455H362.445L353.5 440.498H318.186ZM351.174 446.842L342.271 470.885H306.957L315.923 446.715L351.174 446.842ZM295.707 501.272L304.61 477.208H339.924L331.022 501.272H295.707Z" fill="#68E1FD"/>
<path d="M609.048 252.211H480.288C475.068 252.211 470.836 256.443 470.836 261.664V347.327C470.836 352.548 475.068 356.78 480.288 356.78H609.048C614.268 356.78 618.5 352.548 618.5 347.327V261.664C618.5 256.443 614.268 252.211 609.048 252.211Z" fill="white"/>
<path d="M595.918 342.337H493.422V266.675H495.262V340.476H595.918V342.337Z" fill="#68E1FD"/>
<path d="M494.629 315.143L493.656 313.557L519.497 297.676L557.497 303.534L591.077 284.164L592.007 285.771L557.856 305.479L557.539 305.416L519.899 299.621L494.629 315.143Z" fill="#68E1FD"/>
<path d="M520.849 302.878C523.091 302.878 524.909 301.06 524.909 298.818C524.909 296.576 523.091 294.758 520.849 294.758C518.607 294.758 516.789 296.576 516.789 298.818C516.789 301.06 518.607 302.878 520.849 302.878Z" fill="#68E1FD"/>
<path d="M557.669 308.566C559.912 308.566 561.73 306.748 561.73 304.506C561.73 302.264 559.912 300.446 557.669 300.446C555.427 300.446 553.609 302.264 553.609 304.506C553.609 306.748 555.427 308.566 557.669 308.566Z" fill="#68E1FD"/>
<path d="M590.841 289.64C593.084 289.64 594.901 287.822 594.901 285.58C594.901 283.338 593.084 281.52 590.841 281.52C588.599 281.52 586.781 283.338 586.781 285.58C586.781 287.822 588.599 289.64 590.841 289.64Z" fill="#68E1FD"/>
<path opacity="0.28" d="M520.849 302.878C523.091 302.878 524.909 301.06 524.909 298.818C524.909 296.576 523.091 294.758 520.849 294.758C518.607 294.758 516.789 296.576 516.789 298.818C516.789 301.06 518.607 302.878 520.849 302.878Z" fill="#020202"/>
<path opacity="0.28" d="M557.669 308.566C559.912 308.566 561.73 306.748 561.73 304.506C561.73 302.264 559.912 300.446 557.669 300.446C555.427 300.446 553.609 302.264 553.609 304.506C553.609 306.748 555.427 308.566 557.669 308.566Z" fill="#020202"/>
<path opacity="0.28" d="M590.841 289.64C593.084 289.64 594.901 287.822 594.901 285.58C594.901 283.338 593.084 281.52 590.841 281.52C588.599 281.52 586.781 283.338 586.781 285.58C586.781 287.822 588.599 289.64 590.841 289.64Z" fill="#020202"/>
<path d="M605.186 383.001C605.186 383.001 575.813 438.51 570.315 455.956C564.817 473.401 565.325 524.808 565.325 524.808H581.311C581.311 524.808 581.311 472.936 588.099 464.203C594.887 455.469 632.718 410.893 632.718 410.893L605.186 383.001Z" fill="#473F47"/>
<path d="M601.922 389.747C601.922 389.747 619.727 461.644 628.947 477.736C638.167 493.828 663.373 522.82 663.373 522.82L676.949 515.546C676.949 515.546 642.036 469.743 643.982 456.336C645.927 442.929 650.875 391.629 650.875 391.629C650.875 391.629 626.282 378.285 601.922 389.747Z" fill="#473F47"/>
<path d="M662.294 286.426C662.294 286.426 676.484 293.679 671.197 311.125C665.91 328.57 649.184 367.86 651.002 379.49C652.821 391.121 650.875 391.502 650.875 391.502C650.875 391.502 613.552 404.951 601.922 389.683C601.922 389.683 624.125 311.125 628.841 301.313C633.557 291.501 647.027 280.632 662.294 286.426Z" fill="#68E1FD"/>
<path d="M654.94 325.208C653.561 329.501 651.628 333.596 649.188 337.388C647.958 339.657 646.483 341.784 644.79 343.732C639.99 348.892 632.8 350.858 626.371 353.692C625.221 354.143 624.156 354.787 623.221 355.595C622.264 356.681 621.505 357.927 620.979 359.275C617.49 366.908 612.796 374.648 605.141 378.095C608.291 366.063 611.485 354.03 615.079 342.146C615.498 339.943 616.389 337.856 617.693 336.031C618.996 334.205 620.68 332.684 622.629 331.573C630.664 325.673 638.636 319.668 646.757 313.874C649.527 311.886 652.424 309.644 654.771 313.239C656.822 316.39 655.892 321.909 654.94 325.208Z" fill="url(#paint4_linear_3963_9514)"/>
<path d="M635.91 255.764C635.106 256.588 634.07 257.434 634.07 258.576C634.206 259.435 634.563 260.244 635.106 260.923C637.559 265.153 635.318 271.074 638.278 274.901C639.382 276.211 640.856 277.154 642.508 277.608C644.186 277.835 645.812 278.357 647.308 279.151C648.442 280.269 649.088 281.789 649.105 283.381C649.274 285.284 648.936 287.187 649.105 289.09C649.063 289.728 649.184 290.366 649.458 290.943C649.732 291.521 650.149 292.019 650.67 292.389C651.196 292.62 651.767 292.729 652.341 292.706C655.637 292.855 658.939 292.6 662.174 291.945C662.639 291.884 663.082 291.71 663.464 291.437C663.839 291 664.081 290.464 664.161 289.894C665.557 283.55 666.995 277.206 668.391 270.862C669.21 268.581 670.237 266.38 671.457 264.286C672.57 261.12 672.946 257.743 672.556 254.41C672.196 251.915 671.348 249.515 670.061 247.348C669.006 245.302 667.467 243.545 665.578 242.23C664.185 241.409 662.683 240.79 661.116 240.39C655.703 238.72 647.244 236.478 642.55 241.131C638.701 245.021 639.97 251.725 635.91 255.764Z" fill="#FCBDBA"/>
<path d="M635.339 262.869C636.502 262.15 640.266 263.651 641.683 263.63C646.145 263.503 649.782 265.745 653.356 262.996C656.274 260.881 657.437 257.096 658.452 253.628C658.473 253.438 658.473 253.247 658.452 253.057C658.411 252.814 658.317 252.583 658.177 252.38C656.528 249.97 653.166 249.716 650.332 249.018C645.278 247.557 640.736 244.707 637.221 240.792C636.29 239.991 635.663 238.893 635.445 237.684C635.498 236.985 635.717 236.309 636.085 235.713C636.453 235.117 636.959 234.618 637.56 234.258C641.174 231.974 645.546 231.214 649.719 232.143C653.832 233.094 657.891 234.265 661.878 235.654C665.727 236.732 669.702 237.388 673.529 238.614C674.347 238.849 675.124 239.205 675.834 239.671C676.769 240.412 677.498 241.38 677.949 242.484C678.627 243.874 678.98 245.399 678.98 246.946C678.98 248.492 678.627 250.018 677.949 251.408C677.673 251.815 677.466 252.265 677.336 252.74C677.314 253.22 677.379 253.7 677.526 254.157C678.478 258.386 676.384 262.615 674.354 266.273L669.068 276.128C668.531 277.317 667.737 278.372 666.742 279.215C666.238 279.625 665.614 279.859 664.965 279.882C664.317 279.904 663.678 279.715 663.147 279.342C662.047 278.39 661.984 276.487 660.694 275.853C660.257 275.709 659.794 275.664 659.337 275.718C658.88 275.773 658.441 275.927 658.05 276.17C655.724 277.291 653.821 279.067 651.537 280.399C647.589 282.599 642.937 283.168 638.575 281.985C637.293 281.668 636.095 281.077 635.064 280.251C632.802 278.306 632.95 275.705 633.415 273.061C633.88 270.418 632.95 264.349 635.339 262.869Z" fill="#473F47"/>
<path d="M658.995 313.81C658.995 313.81 643.728 353.079 583.122 360.586L581.008 352.127C581.008 352.127 621.482 336.12 630.215 319.879C632.725 315.315 634.895 310.573 636.707 305.69C639.456 298.077 648.274 293.975 655.337 297.929C659.524 300.277 662.125 304.929 658.995 313.81Z" fill="#68E1FD"/>
<path d="M570.756 350.372C570.825 351.445 571.275 352.457 572.025 353.227C568.14 354.676 564.032 355.435 559.887 355.468C559.131 355.381 558.372 355.593 557.772 356.06C556.968 356.927 557.603 358.344 558.343 359.253C561.493 362.807 565.847 365.067 570.566 365.597C573.639 366.195 576.826 365.677 579.553 364.138C581.435 362.726 583.023 360.959 584.226 358.936C584.471 358.627 584.657 358.276 584.776 357.9C584.867 357.157 584.687 356.406 584.268 355.786C583.782 354.876 583.105 353.079 582.154 352.635C581.202 352.191 579.891 352.635 578.918 352.466C576.127 351.831 573.632 350.055 570.756 350.372Z" fill="#FCBDBA"/>
<path d="M688.203 523.856C688.509 524.075 688.758 524.364 688.929 524.699C689.101 525.033 689.191 525.404 689.191 525.78C689.191 526.156 689.101 526.527 688.929 526.862C688.758 527.196 688.509 527.485 688.203 527.705C681.64 534.775 673.779 540.518 665.048 544.622C662.637 545.742 659.317 546.546 657.668 544.452C656.018 542.359 657.774 539.187 659.169 536.776C661.054 533.541 662.209 529.932 662.553 526.203C662.555 524.926 662.806 523.662 663.293 522.481C665.006 519.331 673.422 516.137 676.911 516.137C681.542 516.095 685.369 520.642 688.203 523.856Z" fill="#68E1FD"/>
<path d="M586.597 536.184C586.763 536.523 586.844 536.898 586.833 537.275C586.823 537.652 586.72 538.021 586.535 538.35C586.35 538.679 586.087 538.958 585.77 539.163C585.453 539.367 585.091 539.492 584.715 539.525C575.512 542.402 565.841 543.479 556.231 542.697C553.566 542.465 550.289 541.513 549.887 538.87C549.485 536.227 552.594 534.345 555.004 532.97C558.224 531.09 561.007 528.545 563.167 525.505C563.793 524.392 564.642 523.42 565.662 522.651C568.707 520.748 577.631 522.08 580.676 523.835C584.694 526.14 585.751 531.976 586.597 536.184Z" fill="#68E1FD"/>
<path d="M189.422 517.005C189.331 519.702 189.829 522.386 190.881 524.871C192.207 527.187 194.206 529.045 196.611 530.2C201.766 532.886 207.758 533.476 213.338 531.849C214.095 531.697 214.776 531.286 215.262 530.686C215.551 530.18 215.669 529.594 215.601 529.016C215.177 525.938 213.616 523.131 211.224 521.149C208.84 519.208 206.802 516.877 205.197 514.256C202.638 509.054 204.541 495.224 194.793 497.508C186.652 499.347 189.189 511.253 189.422 517.005Z" fill="#FBB9AD"/>
<path d="M188.075 526.33C188.075 526.33 186.679 529.756 188.392 531.744C190.105 533.732 207.635 544.622 219.435 535.846C231.235 527.07 203.406 525.95 203.406 525.95L188.075 526.33Z" fill="#68E1FD"/>
<path d="M188.749 518.422C189.283 518.152 189.896 518.085 190.475 518.233C191.054 518.381 191.56 518.733 191.9 519.225C193.051 520.537 194.517 521.533 196.159 522.122C197.802 522.71 199.567 522.87 201.289 522.588C205.137 521.678 206.66 517.237 208.563 517.216C210.466 517.195 220.659 525.886 221.251 529.608C221.843 533.33 216.62 536.079 210.868 536.438C205.116 536.798 192.048 532.801 189.574 529.777C188.53 528.091 187.91 526.178 187.767 524.201C187.623 522.223 187.96 520.241 188.749 518.422Z" fill="white"/>
<path d="M155.992 522.313C155.879 525.011 156.378 527.701 157.451 530.179C158.778 532.489 160.777 534.341 163.182 535.487C168.328 538.173 174.315 538.764 179.887 537.136C180.653 536.992 181.343 536.58 181.833 535.973C182.111 535.471 182.229 534.895 182.171 534.324C181.744 531.248 180.183 528.442 177.794 526.457C175.426 524.507 173.391 522.186 171.767 519.585C169.208 514.404 171.112 500.553 161.363 502.837C153.222 504.698 155.759 516.624 155.992 522.313Z" fill="#FBB9AD"/>
<path d="M154.638 531.68C154.638 531.68 153.242 535.085 154.955 537.073C156.668 539.061 174.156 549.951 185.955 541.196C197.755 532.442 169.969 531.3 169.969 531.3L154.638 531.68Z" fill="#68E1FD"/>
<path d="M155.32 523.751C155.857 523.488 156.47 523.427 157.048 523.578C157.626 523.729 158.131 524.083 158.47 524.575C159.615 525.895 161.08 526.897 162.725 527.486C164.369 528.075 166.137 528.231 167.859 527.938C171.687 527.007 173.231 522.588 175.113 522.566C176.995 522.545 187.208 531.215 187.8 534.937C188.392 538.659 183.169 541.408 177.417 541.767C171.666 542.127 158.618 538.151 156.144 535.127C155.096 533.44 154.473 531.522 154.329 529.541C154.185 527.559 154.525 525.572 155.32 523.751Z" fill="white"/>
<path d="M148.997 378.391C148.997 378.391 147.199 478.561 154.601 511.972L173.442 514.298L178.58 377.397L148.997 378.391Z" fill="#473F47"/>
<path d="M201.038 367.564C201.038 367.564 216.03 421.487 205.267 508.25L186.426 510.576L174.562 372.258L201.038 367.564Z" fill="#473F47"/>
<path d="M229.222 324.404C229.011 328.042 227.848 331.171 224.697 332.229C224.427 332.319 224.152 332.389 223.872 332.44C218.099 333.603 210.508 329.205 205.242 325.356C203.035 323.768 200.917 322.06 198.898 320.239V281.478L227.108 310.279C228.57 314.842 229.284 319.613 229.222 324.404Z" fill="white"/>
<path d="M205.456 325.187C205.456 327.006 205.689 328.824 205.689 330.643C205.689 340.624 203.384 350.943 206.344 360.755C207.318 362.839 207.614 365.176 207.19 367.437C206.324 369.252 204.818 370.682 202.961 371.455C194.143 376.276 183.929 377.799 174.033 379.152C166.547 380.21 155.932 382.43 149.017 378.391C146.078 376.678 145.084 373.485 144.132 370.292C141.487 359.973 139.928 349.406 139.48 338.763C139.48 337.367 139.269 335.993 139.205 334.534C138.627 324.975 138.43 315.403 138.613 305.817C138.74 298.86 139.29 291.353 143.836 286.109C149.863 279.13 161.536 274.499 170.417 272.871C173.288 272.277 176.231 272.114 179.15 272.385C183.284 273.04 187.275 274.399 190.95 276.403C195.348 278.517 199.261 280.42 201.523 284.755C203.898 289.786 205.557 295.124 206.45 300.615C207.282 305.762 207.396 311 206.789 316.179C206.535 318.716 205.879 321.233 205.626 323.749C205.526 324.222 205.47 324.704 205.456 325.187Z" fill="white"/>
<path opacity="0.1" d="M164.662 381.795C161.765 382.641 155.083 379.977 152.862 379.681C151.53 379.448 150.325 378.772 148.992 378.475C142.374 376.826 141.591 358.217 140.957 353.206C139.244 339.989 136.601 326.287 136.41 313.028C136.113 307.91 136.707 302.78 138.166 297.866C138.908 295.411 140.182 293.15 141.896 291.243C143.609 289.335 145.722 287.828 148.083 286.828C156.542 283.783 159.058 310.533 160.221 316.073C161.384 321.613 161.532 331.425 165.191 335.866C168.849 340.306 176.165 341.131 180.944 338.89C183.515 337.599 185.653 335.588 187.099 333.102C188.545 330.616 189.235 327.763 189.086 324.891C188.797 322.901 188.635 320.895 188.599 318.885C188.602 317.877 188.891 316.889 189.434 316.039C189.977 315.189 190.751 314.511 191.666 314.085C192.528 313.869 193.434 313.898 194.281 314.166C195.129 314.435 195.885 314.934 196.466 315.608C197.593 316.994 198.401 318.611 198.834 320.344C199.928 323.967 200.637 327.696 200.949 331.467C201.795 340.412 200.441 349.59 202.577 358.323C203.533 361.038 203.991 363.904 203.93 366.782C203.444 369.163 202.153 371.304 200.274 372.844C198.394 374.385 196.041 375.231 193.611 375.24C191.173 375.147 188.794 374.466 186.677 373.255C184.56 372.043 182.767 370.337 181.452 368.283C181.03 367.548 180.461 366.907 179.781 366.401C179.023 366.02 178.175 365.852 177.328 365.915C173.29 365.915 167.495 366.845 166.184 371.37C165.254 374.606 167.495 377.714 165.74 381.055C165.482 381.424 165.099 381.687 164.662 381.795Z" fill="#020202"/>
<path d="M187.543 260.141C186.84 261.544 185.642 262.636 184.181 263.208C182.398 263.61 180.701 264.326 179.169 265.322C177.927 266.668 177.136 268.369 176.906 270.186L175.701 275.811L175.067 278.644C174.984 279.157 174.812 279.65 174.559 280.103C174.202 280.502 173.76 280.815 173.266 281.02C172.772 281.225 172.238 281.316 171.704 281.288C169.476 281.38 167.269 280.813 165.36 279.659C165.027 279.514 164.751 279.261 164.578 278.94C164.41 278.547 164.366 278.112 164.451 277.693L165.149 269.594C165.537 267.379 165.187 265.099 164.155 263.102C161.825 258.865 160.095 254.324 159.017 249.61C158.639 248.301 158.551 246.926 158.757 245.579C158.963 244.232 159.46 242.946 160.212 241.81C160.964 240.674 161.954 239.715 163.113 238.999C164.272 238.283 165.573 237.827 166.925 237.663C170.881 236.448 175.104 236.404 179.084 237.536C180.565 238.043 181.009 239.058 181.706 240.391C182.743 242.505 183.821 244.62 184.603 246.735C185.386 248.849 186.443 251.641 187.226 254.178C188.036 256.065 188.148 258.179 187.543 260.141Z" fill="#FBB9AD"/>
<path d="M247.407 300.932C247.661 300.509 248.147 300.087 248.549 300.34C248.713 300.504 248.829 300.708 248.887 300.932C249.119 301.338 249.455 301.676 249.86 301.91C250.264 302.144 250.724 302.266 251.192 302.265C252.101 302.265 253.053 302.117 253.983 302.117C255.199 302.155 256.39 302.475 257.461 303.051C258.532 303.627 259.456 304.443 260.158 305.437C261.556 307.446 262.335 309.82 262.399 312.267C262.648 314.466 262.043 316.676 260.708 318.441C258.593 320.916 254.766 320.979 251.488 320.873H248.485C247.776 320.966 247.058 320.784 246.479 320.362C245.901 319.941 245.506 319.314 245.377 318.611C244.15 315.629 241.93 312.647 243.452 309.645C244.975 306.642 245.588 303.047 247.407 300.932Z" fill="#FBB9AD"/>
<path d="M188.389 332.44V310.025C188.389 309.148 188.653 308.292 189.147 307.567C189.641 306.843 190.343 306.285 191.159 305.965L246.668 283.867C249.544 282.725 255.402 286.151 255.402 289.239L252.674 341.11C252.675 341.976 252.419 342.823 251.936 343.543C251.454 344.262 250.769 344.821 249.967 345.149L197.102 369.51C194.204 370.694 188.305 367.268 188.305 364.16L188.389 332.44Z" fill="#68E1FD"/>
<path d="M188.392 332.44V310.025C188.371 309.147 188.625 308.284 189.118 307.556C189.61 306.829 190.317 306.273 191.141 305.965L246.671 283.867C249.547 282.725 255.404 286.151 255.404 289.239L252.676 341.11C252.675 341.976 252.417 342.821 251.935 343.54C251.453 344.259 250.769 344.819 249.969 345.149L197.104 369.51C194.228 370.694 188.328 367.268 188.328 364.16L188.392 332.44Z" fill="url(#paint5_linear_3963_9514)"/>
<path d="M191.156 333.751V311.336C191.154 310.456 191.418 309.596 191.912 308.868C192.406 308.14 193.108 307.578 193.926 307.255L249.435 285.178C250.099 284.912 250.818 284.813 251.53 284.889C252.241 284.965 252.923 285.215 253.515 285.615C254.108 286.016 254.593 286.556 254.929 287.187C255.265 287.819 255.44 288.523 255.441 289.238V342.485C255.439 343.35 255.182 344.196 254.7 344.915C254.218 345.633 253.534 346.193 252.734 346.524L197.225 369.573C196.692 369.794 196.121 369.908 195.544 369.907C194.967 369.907 194.396 369.792 193.863 369.57C193.33 369.348 192.847 369.023 192.44 368.613C192.034 368.204 191.713 367.718 191.495 367.184C191.27 366.655 191.155 366.087 191.156 365.513V333.751Z" fill="#68E1FD"/>
<path d="M191.156 311.336L229.22 330.918L254.384 286.51C254.384 286.51 255.356 285.939 255.356 289.238V342.485L191.156 362.447V311.336Z" fill="url(#paint6_linear_3963_9514)"/>
<path d="M177.965 240.052C177.577 240.64 177.076 241.144 176.492 241.536C175.907 241.928 175.251 242.2 174.56 242.336C170.796 243.14 168.512 241.321 166.609 245.698C165.995 247.197 165.805 248.836 166.059 250.435C166.059 250.773 167.244 254.516 167.54 254.326C166.567 255.024 165.806 253.121 164.748 252.571C163.691 252.021 162.126 253.628 162.38 255.003C162.821 256.352 163.609 257.563 164.664 258.513C166.354 260.611 167.286 263.22 167.307 265.914C167.307 266.527 167.074 267.352 166.44 267.373C165.806 267.394 165.108 266.506 164.621 266.168C163.847 265.649 163.034 265.189 162.19 264.793C159.61 263.567 155.719 263.186 153.562 261.452C152.45 260.527 151.701 259.239 151.447 257.815C151.447 257.477 151.447 253.84 152.082 254.03C151.441 253.839 150.845 253.523 150.328 253.099C149.811 252.676 149.383 252.153 149.07 251.563C148.757 250.972 148.565 250.325 148.505 249.66C148.445 248.994 148.518 248.323 148.719 247.686C149.003 246.791 149.522 245.987 150.221 245.36C147.578 241.68 148.804 236.225 151.976 232.989C155.381 229.947 159.689 228.104 164.241 227.745C169.186 226.965 174.243 227.298 179.043 228.718C180.709 229.178 182.248 230.01 183.547 231.15C184.182 231.724 184.669 232.443 184.967 233.245C185.265 234.048 185.366 234.91 185.26 235.759C184.981 235.873 184.674 235.904 184.378 235.848C184.082 235.791 183.808 235.651 183.59 235.442C183.869 236.205 183.835 237.048 183.494 237.785C183.153 238.523 182.533 239.095 181.771 239.375C181.2 239.583 180.58 239.618 179.99 239.475C179.399 239.332 178.864 239.018 178.451 238.572C178.409 239.097 178.242 239.604 177.965 240.052Z" fill="#473F47"/>
<path d="M180.373 264.391L179.738 264.582C179.548 264.601 179.37 264.683 179.231 264.814C179.189 264.959 179.189 265.113 179.231 265.258C177.989 266.604 177.198 268.305 176.968 270.122L175.763 275.747C173.728 272.151 172.191 268.296 171.195 264.286C174.243 264.638 177.318 264.673 180.373 264.391Z" fill="#DC9F95"/>
<path d="M183.587 332.652C183.943 332.215 184.401 331.872 184.921 331.654C185.441 331.437 186.007 331.351 186.568 331.404C187.206 331.725 187.814 332.1 188.387 332.525C188.926 332.766 189.509 332.895 190.1 332.906C192.491 333.077 194.891 332.738 197.141 331.912C198.277 331.358 199.516 331.048 200.779 331.002C201.533 331.149 202.247 331.458 202.871 331.907C203.496 332.356 204.015 332.935 204.395 333.603C205.52 335.218 206.153 337.124 206.217 339.09C206.28 341.057 205.772 343 204.754 344.684C203.809 346.052 202.566 347.188 201.117 348.004C197.906 349.686 194.338 350.57 190.713 350.584C187.118 350.753 183.46 350.584 179.886 350.753C179.039 350.908 178.166 350.789 177.391 350.415C176.963 350.016 176.631 349.525 176.422 348.979C176.213 348.433 176.132 347.846 176.185 347.264C176.059 344.536 175.593 342.231 177.179 339.926C179.173 337.38 181.312 334.951 183.587 332.652Z" fill="#FBB9AD"/>
<path d="M143.878 286.13C143.878 286.13 104.144 338.086 116.705 356.441C129.266 374.796 182.258 353.417 182.258 353.417L177.098 338.213C177.098 338.213 139.881 342.929 139.606 338.763C139.331 334.597 163.205 310.744 163.205 310.744C163.205 310.744 167.477 275.832 143.878 286.13Z" fill="white"/>
</g>
<defs>
<linearGradient id="paint0_linear_3963_9514" x1="388.476" y1="349.992" x2="419.9" y2="617.027" gradientUnits="userSpaceOnUse">
<stop offset="0.01"/>
<stop offset="0.08" stop-opacity="0.69"/>
<stop offset="0.21" stop-opacity="0.32"/>
<stop offset="1" stop-opacity="0"/>
</linearGradient>
<linearGradient id="paint1_linear_3963_9514" x1="418.292" y1="329.29" x2="429.288" y2="480.084" gradientUnits="userSpaceOnUse">
<stop offset="0.01"/>
<stop offset="0.08" stop-opacity="0.69"/>
<stop offset="0.21" stop-opacity="0.32"/>
<stop offset="1" stop-opacity="0"/>
</linearGradient>
<linearGradient id="paint2_linear_3963_9514" x1="150.431" y1="715.949" x2="969.362" y2="12.2226" gradientUnits="userSpaceOnUse">
<stop offset="0.01"/>
<stop offset="0.08" stop-opacity="0.69"/>
<stop offset="0.21" stop-opacity="0.32"/>
<stop offset="1" stop-opacity="0"/>
</linearGradient>
<linearGradient id="paint3_linear_3963_9514" x1="343.416" y1="162.128" x2="467.777" y2="439.017" gradientUnits="userSpaceOnUse">
<stop offset="0.01"/>
<stop offset="0.08" stop-opacity="0.69"/>
<stop offset="0.21" stop-opacity="0.32"/>
<stop offset="1" stop-opacity="0"/>
</linearGradient>
<linearGradient id="paint4_linear_3963_9514" x1="577.481" y1="277.862" x2="707.806" y2="446.207" gradientUnits="userSpaceOnUse">
<stop offset="0.01"/>
<stop offset="0.08" stop-opacity="0.69"/>
<stop offset="0.21" stop-opacity="0.32"/>
<stop offset="1" stop-opacity="0"/>
</linearGradient>
<linearGradient id="paint5_linear_3963_9514" x1="176.973" y1="276.593" x2="323.939" y2="440.667" gradientUnits="userSpaceOnUse">
<stop offset="0.01"/>
<stop offset="0.13" stop-opacity="0.69"/>
<stop offset="0.25" stop-opacity="0.32"/>
<stop offset="1" stop-opacity="0"/>
</linearGradient>
<linearGradient id="paint6_linear_3963_9514" x1="214.417" y1="266.866" x2="236.938" y2="416.095" gradientUnits="userSpaceOnUse">
<stop offset="0.01"/>
<stop offset="0.13" stop-opacity="0.69"/>
<stop offset="0.25" stop-opacity="0.32"/>
<stop offset="1" stop-opacity="0"/>
</linearGradient>
<clipPath id="clip0_3963_9514">
<rect width="824" height="621.044" fill="white"/>
</clipPath>
</defs>
</svg>
