<svg width="97" height="60" viewBox="0 0 97 60" fill="none" xmlns="http://www.w3.org/2000/svg">
<path d="M88.9929 15.976C88.5515 14.8725 87.4481 13.9897 86.1239 13.9897H68.4688V41.7966C73.7653 41.7966 77.9584 45.9897 77.9584 51.2863H94.7308V32.5277L88.9929 15.976Z" fill="#FCFDF7" stroke="#00004D"/>
<path d="M74.8729 30.5412H90.3212C90.9832 30.5412 91.866 30.7619 92.3074 30.7619L94.735 31.6447L88.997 15.9757C88.997 15.9757 88.335 13.1067 83.4798 13.9895H72.4453V28.555C72.666 29.6585 73.7694 30.5412 74.8729 30.5412Z" fill="#EE6352"/>
<path d="M86.3505 13.9897H68.6953V41.7966C73.9919 41.7966 78.185 45.9897 78.185 51.2863" stroke="#00004D" stroke-miterlimit="10"/>
<path d="M96.5033 51.0656C96.5033 51.507 96.062 51.9484 95.6206 51.9484H88.1171C87.6757 51.9484 87.2344 51.507 87.2344 51.0656V46.8725C87.2344 46.4311 87.6757 45.9897 88.1171 45.9897H95.6206C96.062 45.9897 96.5033 46.4311 96.5033 46.8725V51.0656Z" fill="#FCFDF7"/>
<path d="M96.5033 51.0656C96.5033 51.507 96.062 51.9484 95.6206 51.9484H88.1171C87.6757 51.9484 87.2344 51.507 87.2344 51.0656V46.8725C87.2344 46.4311 87.6757 45.9897 88.1171 45.9897H95.6206C96.062 45.9897 96.5033 46.4311 96.5033 46.8725V51.0656Z" stroke="#00004D" stroke-miterlimit="10"/>
<path d="M31.1832 58.569C34.8397 58.569 37.8039 55.6048 37.8039 51.9483C37.8039 48.2918 34.8397 45.3276 31.1832 45.3276C27.5267 45.3276 24.5625 48.2918 24.5625 51.9483C24.5625 55.6048 27.5267 58.569 31.1832 58.569Z" fill="#EE6352"/>
<path d="M31.1832 58.569C34.8397 58.569 37.8039 55.6048 37.8039 51.9483C37.8039 48.2918 34.8397 45.3276 31.1832 45.3276C27.5267 45.3276 24.5625 48.2918 24.5625 51.9483C24.5625 55.6048 27.5267 58.569 31.1832 58.569Z" stroke="#EE6352" stroke-miterlimit="10"/>
<path d="M31.1795 54.5968C32.6421 54.5968 33.8278 53.4112 33.8278 51.9486C33.8278 50.486 32.6421 49.3003 31.1795 49.3003C29.7169 49.3003 28.5312 50.486 28.5312 51.9486C28.5312 53.4112 29.7169 54.5968 31.1795 54.5968Z" fill="#FCFDF7"/>
<path d="M68.4723 58.569C72.1288 58.569 75.0929 55.6048 75.0929 51.9483C75.0929 48.2918 72.1288 45.3276 68.4723 45.3276C64.8157 45.3276 61.8516 48.2918 61.8516 51.9483C61.8516 55.6048 64.8157 58.569 68.4723 58.569Z" fill="#EE6352"/>
<path d="M68.4723 58.569C72.1288 58.569 75.0929 55.6048 75.0929 51.9483C75.0929 48.2918 72.1288 45.3276 68.4723 45.3276C64.8157 45.3276 61.8516 48.2918 61.8516 51.9483C61.8516 55.6048 64.8157 58.569 68.4723 58.569Z" stroke="#EE6352" stroke-miterlimit="10"/>
<path d="M68.4686 54.5968C69.9312 54.5968 71.1169 53.4112 71.1169 51.9486C71.1169 50.486 69.9312 49.3003 68.4686 49.3003C67.006 49.3003 65.8203 50.486 65.8203 51.9486C65.8203 53.4112 67.006 54.5968 68.4686 54.5968Z" fill="#FCFDF7"/>
<path d="M14.8473 58.569C18.5038 58.569 21.4679 55.6048 21.4679 51.9483C21.4679 48.2918 18.5038 45.3276 14.8473 45.3276C11.1907 45.3276 8.22656 48.2918 8.22656 51.9483C8.22656 55.6048 11.1907 58.569 14.8473 58.569Z" fill="#EE6352"/>
<path d="M14.8473 58.569C18.5038 58.569 21.4679 55.6048 21.4679 51.9483C21.4679 48.2918 18.5038 45.3276 14.8473 45.3276C11.1907 45.3276 8.22656 48.2918 8.22656 51.9483C8.22656 55.6048 11.1907 58.569 14.8473 58.569Z" stroke="#EE6352" stroke-miterlimit="10"/>
<path d="M14.8436 54.5968C16.3062 54.5968 17.4919 53.4112 17.4919 51.9486C17.4919 50.486 16.3062 49.3003 14.8436 49.3003C13.381 49.3003 12.1953 50.486 12.1953 51.9486C12.1953 53.4112 13.381 54.5968 14.8436 54.5968Z" fill="#FCFDF7"/>
<path d="M64.2759 46.4307H40.8828" stroke="#00004D" stroke-miterlimit="10"/>
<path d="M5.13281 50.4033C5.13281 45.9895 8.66385 42.4585 13.0776 42.4585H32.719C37.1328 42.4585 40.6638 45.9895 40.6638 50.4033V52.1688" stroke="#00004D" stroke-miterlimit="10"/>
<path d="M64.2793 2.95508H0.5V40.4723H64.2793V2.95508Z" fill="#FCFDF7" stroke="#00004D"/>
<path d="M64.2793 2.95508V40.4723H0.5" stroke="#00004D" stroke-miterlimit="10"/>
<path d="M56.9988 15.5342H5.57812V26.1273H56.9988V15.5342Z" fill="#EE6352"/>
<path d="M85.4659 13.7688L70.6797 1.18945" stroke="#00004D" stroke-miterlimit="10"/>
<path d="M75.5312 5.60303V12.4444" stroke="#00004D" stroke-miterlimit="10"/>
</svg>
